<svg width="37" height="26" viewBox="0 0 37 26" fill="none" xmlns="http://www.w3.org/2000/svg">
<path d="M0.00938233 22.6489C0.0938233 22.5739 0.187647 22.4988 0.272088 22.4144C3.69664 18.9898 7.12119 15.5653 10.5457 12.1407C10.6302 12.0563 10.6959 11.9625 10.7709 11.8686C12.5911 13.6888 14.3737 15.4715 16.1282 17.226C20.7068 12.6474 25.2385 8.11572 29.7701 3.58405C28.2971 3.58405 26.7772 3.58405 25.2479 3.58405C25.2479 2.37373 25.2479 1.19156 25.2479 0C28.8413 0 32.416 0 36.0094 0C36.0094 3.58405 36.0094 7.15872 36.0094 10.7615C34.8366 10.7615 33.6638 10.7615 32.4629 10.7615C32.4629 9.24159 32.4629 7.73104 32.4629 6.20172C27.0586 11.6059 21.6826 16.982 16.269 22.3956C14.4019 20.5192 12.6099 18.7365 10.7897 16.9163C8.03128 19.6747 5.28225 22.4238 2.51447 25.1916C1.76388 24.441 1.03206 23.6998 0.290852 22.9679C0.206411 22.8835 0.103206 22.8084 0 22.724C0.00938233 22.6959 0.00938233 22.6771 0.00938233 22.6489Z" fill="#E6873C"/>
</svg>
