<svg width="40" height="40" viewBox="0 0 40 40" fill="none" xmlns="http://www.w3.org/2000/svg">
<path d="M26.8156 3.87988C25.2168 3.87988 23.8638 4.95176 23.437 6.41457L5.60719 10.1548C5.3439 10.21 5.10763 10.3542 4.93805 10.563C4.76848 10.7719 4.67593 11.0327 4.67594 11.3018V12.6401H1.17188C0.524687 12.6401 0 13.1648 0 13.812V20.0035C0 20.6507 0.524687 21.1754 1.17188 21.1754H4.67594V22.8196C4.67594 23.0886 4.7685 23.3494 4.93807 23.5583C5.10764 23.7671 5.3439 23.9113 5.60719 23.9665L7.45047 24.3532V32.7805C7.45047 34.3384 8.50984 35.6749 10.0267 36.0305C10.2786 36.0897 10.5364 36.1197 10.7952 36.1198C11.5386 36.1198 12.2641 35.8705 12.8622 35.3964C13.6658 34.7594 14.1267 33.806 14.1267 32.7805V31.2543H14.3611C17.0211 31.2543 19.2627 29.4286 19.8986 26.9645L23.437 27.7068C23.8637 29.1696 25.2168 30.2414 26.8156 30.2414C28.7558 30.2414 30.3343 28.6629 30.3343 26.7228V7.39855C30.3343 5.45832 28.7559 3.87988 26.8156 3.87988ZM4.67594 18.8316H2.34375V14.9839H4.67594V18.8316ZM11.783 32.7804C11.783 33.0859 11.6457 33.3699 11.4063 33.5596C11.2891 33.6531 11.1521 33.7187 11.0058 33.7515C10.8595 33.7842 10.7076 33.7832 10.5617 33.7486C10.343 33.698 10.148 33.5747 10.0086 33.3988C9.86915 33.2229 9.7936 33.0049 9.7943 32.7804V24.8448L11.783 25.262L11.783 32.7804ZM14.3611 28.9106H14.1267V25.7537L17.6004 26.4824C17.1904 27.8839 15.8934 28.9106 14.3611 28.9106ZM23.297 25.2826L7.01969 21.868V12.2532L23.297 8.83863V25.2826ZM27.9905 26.7228C27.9905 27.3706 27.4634 27.8977 26.8156 27.8977C26.1677 27.8977 25.6406 27.3706 25.6406 26.7228V7.39855C25.6406 6.75074 26.1677 6.22363 26.8156 6.22363C27.4634 6.22363 27.9905 6.75074 27.9905 7.39855V26.7228ZM34.8667 9.13965C35.1295 9.13965 35.394 9.05168 35.6124 8.87121L37.968 6.92527C38.467 6.51309 38.5373 5.77441 38.1252 5.27543C37.713 4.77645 36.9743 4.70605 36.4753 5.11832L34.1197 7.06426C33.6207 7.47645 33.5504 8.21512 33.9626 8.7141C34.0725 8.84741 34.2106 8.95471 34.3669 9.02829C34.5232 9.10187 34.6939 9.1399 34.8667 9.13965ZM37.968 26.8902L35.6124 24.9443C35.1135 24.5321 34.3748 24.6025 33.9626 25.1014C33.5504 25.6003 33.6208 26.3389 34.1197 26.7512L36.4753 28.6971C36.685 28.8709 36.9487 28.9658 37.221 28.9656C37.5584 28.9656 37.8934 28.8205 38.1252 28.54C38.5373 28.0411 38.467 27.3024 37.968 26.8902ZM38.8281 15.7358H33.8557C33.2085 15.7358 32.6838 16.2605 32.6838 16.9077C32.6838 17.5549 33.2085 18.0796 33.8557 18.0796H38.8281C39.4753 18.0796 40 17.5549 40 16.9077C40 16.2605 39.4753 15.7358 38.8281 15.7358Z" fill="#225675"/>
</svg>
