<svg width="37" height="26" viewBox="0 0 37 26" fill="none" xmlns="http://www.w3.org/2000/svg">
<path d="M1.0001 22.6489C1.08455 22.5739 1.17837 22.4988 1.26281 22.4144C4.68736 18.9898 8.11191 15.5653 11.5365 12.1407C11.6209 12.0563 11.6866 11.9625 11.7616 11.8686C13.5818 13.6888 15.3645 15.4715 17.119 17.226C21.6975 12.6474 26.2292 8.11572 30.7609 3.58405C29.2878 3.58405 27.7679 3.58405 26.2386 3.58405C26.2386 2.37373 26.2386 1.19156 26.2386 0C29.832 0 33.4067 0 37.0001 0C37.0001 3.58405 37.0001 7.15872 37.0001 10.7615C35.8273 10.7615 34.6545 10.7615 33.4536 10.7615C33.4536 9.24159 33.4536 7.73104 33.4536 6.20172C28.0494 11.6059 22.6733 16.982 17.2597 22.3956C15.3926 20.5192 13.6006 18.7365 11.7804 16.9163C9.022 19.6747 6.27298 22.4238 3.50519 25.1916C2.7546 24.441 2.02278 23.6998 1.28157 22.9679C1.19713 22.8835 1.09393 22.8084 0.990723 22.724C1.0001 22.6959 1.0001 22.6771 1.0001 22.6489Z" fill="#6A35D1"/>
</svg>
