<svg width="82" height="82" viewBox="0 0 82 82" fill="none" xmlns="http://www.w3.org/2000/svg">
<path d="M14.0078 12.8138V0.999999H67.9914V41" stroke="#3D8C95" stroke-width="2" stroke-miterlimit="10" stroke-linecap="round" stroke-linejoin="round"/>
<path d="M14.0078 40.9998V18.4536" stroke="#3D8C95" stroke-width="2" stroke-miterlimit="10" stroke-linecap="round" stroke-linejoin="round"/>
<path d="M35.7973 29.6179H20.1875V7.1788H35.7973V29.6179ZM61.8136 12.7072H41.651V7.17865H61.8136V12.7072Z" stroke="url(#paint0_linear_456_9652)" stroke-width="2" stroke-miterlimit="10" stroke-linecap="round" stroke-linejoin="round"/>
<path d="M41.6504 18.5608H61.813" stroke="#3D8C95" stroke-width="2" stroke-miterlimit="10" stroke-linecap="round" stroke-linejoin="round"/>
<path d="M61.813 23.7642H41.6504" stroke="#3D8C95" stroke-width="2" stroke-miterlimit="10" stroke-linecap="round" stroke-linejoin="round"/>
<path d="M41.6504 29.6177H61.813" stroke="#3D8C95" stroke-width="2" stroke-miterlimit="10" stroke-linecap="round" stroke-linejoin="round"/>
<path d="M31.8945 35.4714H61.8132" stroke="#3D8C95" stroke-width="2" stroke-miterlimit="10" stroke-linecap="round" stroke-linejoin="round"/>
<path d="M20.1875 35.4714H26.0412" stroke="#3D8C95" stroke-width="2" stroke-miterlimit="10" stroke-linecap="round" stroke-linejoin="round"/>
<path d="M45.3633 60.7396L47.3351 49.815C47.3844 49.5591 47.7412 49.5353 47.8241 49.7822L51.0319 60.6544C51.1096 60.8859 51.4376 60.8843 51.5131 60.652L54.6112 49.7839C54.6916 49.5362 55.0486 49.5563 55.1006 49.8116L57.1891 60.7396" stroke="url(#paint1_linear_456_9652)" stroke-width="2" stroke-miterlimit="10" stroke-linecap="round" stroke-linejoin="round"/>
<path d="M62.3828 49.6087V59.4307" stroke="url(#paint2_linear_456_9652)" stroke-width="2" stroke-miterlimit="10" stroke-linecap="round" stroke-linejoin="round"/>
<path d="M39.1173 52.1903C39.1173 53.6158 37.9614 54.7715 36.5359 54.7715C35.8288 54.7715 33.2773 54.783 33.2773 54.783V49.6089H36.5359C37.9614 49.6089 39.1173 50.7646 39.1173 52.1903Z" stroke="url(#paint3_linear_456_9652)" stroke-width="2" stroke-miterlimit="10" stroke-linecap="round" stroke-linejoin="round"/>
<path d="M40.1247 57.7942C40.1247 59.4618 38.7729 60.8138 37.1049 60.8138C36.2781 60.8138 33.2773 60.8271 33.2773 60.8271V54.7745H37.1049C38.7729 54.7745 40.1247 56.1265 40.1247 57.7942Z" stroke="url(#paint4_linear_456_9652)" stroke-width="2" stroke-miterlimit="10" stroke-linecap="round" stroke-linejoin="round"/>
<path d="M15.1506 50.7621C15.1506 50.7621 13.1376 49.0699 10.7638 49.7851C8.58418 50.4416 8.27931 52.955 9.85613 53.983C9.85613 53.983 11.4037 54.6734 13.1199 55.3063C17.2512 56.8304 15.4716 60.8271 12.1457 60.8271C10.4802 60.8271 9.08236 60.0978 8.23633 59.1642" stroke="url(#paint5_linear_456_9652)" stroke-width="2" stroke-miterlimit="10" stroke-linecap="round" stroke-linejoin="round"/>
<path d="M20.3477 49.6086V57.328C20.3477 58.6428 20.9999 59.5277 22.1077 60.2357C22.6471 60.5803 23.3286 60.8259 24.1754 60.8269C24.9088 60.8279 25.5219 60.6582 26.0286 60.4029C27.3196 59.7528 28.1429 58.7656 28.1429 57.3199V49.6086" stroke="url(#paint6_linear_456_9652)" stroke-width="2" stroke-miterlimit="10" stroke-linecap="round" stroke-linejoin="round"/>
<path d="M67.5684 49.6086H73.7638" stroke="url(#paint7_linear_456_9652)" stroke-width="2" stroke-miterlimit="10" stroke-linecap="round" stroke-linejoin="round"/>
<path d="M70.6543 49.9669V60.8271" stroke="url(#paint8_linear_456_9652)" stroke-width="2" stroke-miterlimit="10" stroke-linecap="round" stroke-linejoin="round"/>
<path d="M65.3633 41.0708H77.7488C79.5437 41.0708 81.0005 42.5276 81.0005 44.3239V66.1121C81.0005 67.9085 79.5437 69.3638 77.7488 69.3638H75.4133" stroke="#3D8C95" stroke-width="2" stroke-miterlimit="10" stroke-linecap="round" stroke-linejoin="round"/>
<path d="M11.8782 69.3638H4.25151C2.45674 69.3638 1 67.9086 1 66.1123V44.3239C1 42.5276 2.45674 41.0708 4.25151 41.0708H59.7179" stroke="#3D8C95" stroke-width="2" stroke-miterlimit="10" stroke-linecap="round" stroke-linejoin="round"/>
<path d="M62.0111 69.3638H17.5137" stroke="#3D8C95" stroke-width="2" stroke-miterlimit="10" stroke-linecap="round" stroke-linejoin="round"/>
<path d="M71.5947 71.5949L80.9997 66.0989L58.0273 58.0276L66.0987 81L71.5947 71.5949Z" stroke="url(#paint9_linear_456_9652)" stroke-width="2" stroke-miterlimit="10" stroke-linecap="round" stroke-linejoin="round"/>
<defs>
<linearGradient id="paint0_linear_456_9652" x1="20.1875" y1="29.6179" x2="63.8569" y2="24.452" gradientUnits="userSpaceOnUse">
<stop stop-color="#FD4524"/>
<stop offset="1" stop-color="#F0684B"/>
</linearGradient>
<linearGradient id="paint1_linear_456_9652" x1="45.3633" y1="60.8271" x2="57.8866" y2="59.9853" gradientUnits="userSpaceOnUse">
<stop stop-color="#FD4524"/>
<stop offset="1" stop-color="#F0684B"/>
</linearGradient>
<linearGradient id="paint2_linear_456_9652" x1="62.3828" y1="59.4307" x2="63.4465" y2="59.4238" gradientUnits="userSpaceOnUse">
<stop stop-color="#FD4524"/>
<stop offset="1" stop-color="#F0684B"/>
</linearGradient>
<linearGradient id="paint3_linear_456_9652" x1="33.2773" y1="54.783" x2="39.4577" y2="54.3381" gradientUnits="userSpaceOnUse">
<stop stop-color="#FD4524"/>
<stop offset="1" stop-color="#F0684B"/>
</linearGradient>
<linearGradient id="paint4_linear_456_9652" x1="33.2773" y1="60.8271" x2="40.5236" y2="60.3044" gradientUnits="userSpaceOnUse">
<stop stop-color="#FD4524"/>
<stop offset="1" stop-color="#F0684B"/>
</linearGradient>
<linearGradient id="paint5_linear_456_9652" x1="8.23633" y1="60.8271" x2="15.9727" y2="60.5068" gradientUnits="userSpaceOnUse">
<stop stop-color="#FD4524"/>
<stop offset="1" stop-color="#F0684B"/>
</linearGradient>
<linearGradient id="paint6_linear_456_9652" x1="20.3477" y1="60.8269" x2="28.6238" y2="60.4602" gradientUnits="userSpaceOnUse">
<stop stop-color="#FD4524"/>
<stop offset="1" stop-color="#F0684B"/>
</linearGradient>
<linearGradient id="paint7_linear_456_9652" x1="67.5684" y1="49.6086" x2="73.2691" y2="47.3564" gradientUnits="userSpaceOnUse">
<stop stop-color="#FD4524"/>
<stop offset="1" stop-color="#F0684B"/>
</linearGradient>
<linearGradient id="paint8_linear_456_9652" x1="70.6543" y1="60.8271" x2="71.718" y2="60.8209" gradientUnits="userSpaceOnUse">
<stop stop-color="#FD4524"/>
<stop offset="1" stop-color="#F0684B"/>
</linearGradient>
<linearGradient id="paint9_linear_456_9652" x1="58.0273" y1="81" x2="82.3657" y2="79.448" gradientUnits="userSpaceOnUse">
<stop stop-color="#FD4524"/>
<stop offset="1" stop-color="#F0684B"/>
</linearGradient>
</defs>
</svg>
