<svg width="82" height="80" viewBox="0 0 82 80" fill="none" xmlns="http://www.w3.org/2000/svg">
<path d="M15.0914 14.2866C18.0532 14.2866 20.4537 16.6871 20.4537 19.6489V26.5558C20.4537 27.0796 20.8881 27.5133 21.4112 27.5133C21.9349 27.5133 22.3687 27.079 22.3687 26.5558V19.6489C22.3687 15.9337 19.5726 12.8695 15.9725 12.4357C17.4149 11.1332 18.3341 9.24402 18.3341 7.14977C18.3341 3.20458 15.1295 0 11.1843 0C7.23915 0 4.03457 3.20458 4.03457 7.14977C4.03457 9.24342 4.95386 11.1332 6.39621 12.4357C2.79605 12.87 0 15.9341 0 19.6489V26.5558C0 27.0796 0.434365 27.5133 0.957491 27.5133C1.4812 27.5133 1.91498 27.079 1.91498 26.5558V19.6489C1.91498 16.6994 4.31544 14.2866 7.27731 14.2866H15.0914ZM5.94968 7.14977C5.94968 4.26434 8.29898 1.91504 11.1844 1.91504C14.0698 1.91504 16.4191 4.26434 16.4191 7.14977C16.4191 10.0352 14.0698 12.3845 11.1844 12.3845C8.29898 12.3845 5.94968 10.0352 5.94968 7.14977Z" fill="#3D8C95"/>
<path d="M15.3984 22.3684V26.5563C15.3984 27.08 15.8328 27.5138 16.3559 27.5138C16.8796 27.5138 17.3134 27.0794 17.3134 26.5563V22.3684C17.3134 21.8447 16.8791 21.4109 16.3559 21.4109C15.8322 21.4109 15.3984 21.8447 15.3984 22.3684Z" fill="#3D8C95"/>
<path d="M6.96967 26.5575V22.3696C6.96967 21.8459 6.53531 21.4121 6.01218 21.4121C5.48847 21.4121 5.05469 21.8465 5.05469 22.3696V26.5575C5.05469 27.0812 5.48905 27.515 6.01218 27.515C6.53531 27.515 6.96967 27.0806 6.96967 26.5575Z" fill="#3D8C95"/>
<path d="M74.6776 12.4359C76.12 11.1334 77.0392 9.24427 77.0392 7.15001C77.0392 3.20482 73.8346 0.000244141 69.8894 0.000244141C65.9442 0.000244141 62.7397 3.20482 62.7397 7.15001C62.7397 9.24367 63.6589 11.1334 65.1013 12.4359C61.5011 12.8703 58.7051 15.9344 58.7051 19.6492V26.5561C58.7051 27.0798 59.1394 27.5136 59.6626 27.5136C60.1863 27.5136 60.6201 27.0792 60.6201 26.5561V19.6492C60.6201 16.6996 63.0205 14.2868 65.9824 14.2868H73.7957C76.7576 14.2868 79.1581 16.6873 79.1581 19.6492V26.5561C79.1581 27.0798 79.5924 27.5136 80.1156 27.5136C80.6393 27.5136 81.073 27.0792 81.073 26.5561V19.6492C81.0736 15.9344 78.2777 12.8697 74.6776 12.4359ZM64.6548 7.15001C64.6548 4.26459 67.0041 1.91529 69.8896 1.91529C72.775 1.91529 75.1243 4.26459 75.1243 7.15001C75.1243 10.0354 72.775 12.3847 69.8896 12.3847C67.0041 12.3847 64.6548 10.0354 64.6548 7.15001Z" fill="#3D8C95"/>
<path d="M75.0571 21.4116C74.5334 21.4116 74.0996 21.846 74.0996 22.3691V26.557C74.0996 27.0807 74.534 27.5145 75.0571 27.5145C75.5808 27.5145 76.0146 27.0801 76.0146 26.557V22.3691C76.0146 21.8454 75.5808 21.4116 75.0571 21.4116Z" fill="#3D8C95"/>
<path d="M65.6747 26.5575V22.3696C65.6747 21.8459 65.2404 21.4121 64.7173 21.4121C64.1935 21.4121 63.7598 21.8465 63.7598 22.3696V26.5575C63.7598 27.0812 64.1941 27.515 64.7173 27.515C65.241 27.515 65.6747 27.0806 65.6747 26.5575Z" fill="#3D8C95"/>
<path d="M45.1717 64.9215C46.6141 63.619 47.5333 61.7299 47.5333 59.6356C47.5333 55.6904 44.3288 52.4858 40.3836 52.4858C36.4384 52.4858 33.2338 55.6904 33.2338 59.6356C33.2338 61.7293 34.1531 63.619 35.5954 64.9215C31.9953 65.3559 29.1992 68.4199 29.1992 72.1348V79.0417C29.1992 79.5654 29.6336 79.9992 30.1567 79.9992C30.6804 79.9992 31.1142 79.5648 31.1142 79.0417V72.1348C31.1142 69.1852 33.5147 66.7724 36.4765 66.7724H44.2899C47.2517 66.7724 49.6522 69.1729 49.6522 72.1348V79.0417C49.6522 79.5654 50.0866 79.9992 50.6097 79.9992C51.1334 79.9992 51.5672 79.5648 51.5672 79.0417V72.1348C51.5678 68.4195 48.7719 65.3553 45.1717 64.9215ZM35.1619 59.6233C35.1619 56.7378 37.5112 54.3885 40.3967 54.3885C43.2821 54.3885 45.6314 56.7378 45.6314 59.6233C45.6314 62.5087 43.2821 64.858 40.3967 64.858C37.4983 64.8574 35.1619 62.5081 35.1619 59.6233Z" fill="#3D8C95"/>
<path d="M45.5532 73.897C45.0295 73.897 44.5957 74.3313 44.5957 74.8545V79.0424C44.5957 79.5661 45.0301 79.9999 45.5532 79.9999C46.0769 79.9999 46.5107 79.5655 46.5107 79.0424L46.5113 74.8545C46.5113 74.3308 46.0769 73.897 45.5532 73.897Z" fill="#3D8C95"/>
<path d="M35.2251 73.897C34.7014 73.897 34.2676 74.3313 34.2676 74.8545V79.0424C34.2676 79.5661 34.7019 79.9999 35.2251 79.9999C35.7488 79.9999 36.1826 79.5655 36.1826 79.0424V74.8545C36.1826 74.3308 35.7488 73.897 35.2251 73.897Z" fill="#3D8C95"/>
<path d="M72.0331 29.4678C71.5223 29.6212 71.2413 30.1572 71.3947 30.6551C72.314 33.6809 72.7736 36.8214 72.7736 39.9877C72.7736 52.6526 65.2918 64.194 53.7256 69.3912C53.2406 69.6081 53.0232 70.17 53.2406 70.6549C53.4064 71.0123 53.7514 71.2169 54.1088 71.2169C54.2363 71.2169 54.3768 71.1916 54.5043 71.1275C66.7606 65.6248 74.6765 53.393 74.6765 39.9755C74.6765 36.6176 74.1915 33.2984 73.2211 30.0809C73.0677 29.6089 72.544 29.315 72.0332 29.4684L72.0331 29.4678Z" fill="#3D8C95"/>
<path d="M26.8122 69.1603C15.5639 63.862 8.29973 52.4234 8.29973 40.0005C8.29973 36.8342 8.75938 33.6937 9.67866 30.6679C9.83207 30.1571 9.55111 29.621 9.04033 29.4806C8.54249 29.3272 8.00644 29.6081 7.85303 30.1189C6.88261 33.3235 6.38477 36.6425 6.38477 40.0006C6.38477 53.151 14.0835 65.2797 25.9821 70.8968C26.1096 70.9608 26.2501 70.9861 26.3906 70.9861C26.7479 70.9861 27.093 70.7816 27.2587 70.4371C27.4885 69.9652 27.284 69.3903 26.812 69.1605L26.8122 69.1603Z" fill="#3D8C95"/>
<path d="M22.0617 13.3809C22.2403 13.3809 22.432 13.3298 22.5977 13.2151C27.9089 9.64026 34.114 7.76358 40.5353 7.76358C46.8804 7.76358 53.0214 9.61513 58.3074 13.113C58.7418 13.4069 59.3413 13.2787 59.6352 12.845C59.9291 12.3982 59.801 11.8111 59.3672 11.5172C53.7757 7.81483 47.2642 5.84863 40.5358 5.84863C33.7311 5.84863 27.1556 7.8529 21.5253 11.6324C21.0909 11.9263 20.9634 12.5258 21.2702 12.9602C21.4489 13.2406 21.7551 13.3811 22.0614 13.3811L22.0617 13.3809Z" fill="#3D8C95"/>
<path d="M47.6105 54.1853C47.8021 54.3899 48.0572 54.4916 48.3 54.4916C48.5298 54.4916 48.7725 54.4022 48.9512 54.2235C51.4411 51.8742 52.807 48.6955 52.807 45.2993C52.807 38.5198 47.2914 33.0042 40.5119 33.0042C33.7325 33.0042 28.2168 38.5198 28.2168 45.2993C28.2168 48.619 29.5193 51.7337 31.894 54.0577C32.2643 54.428 32.8774 54.428 33.2471 54.0448C33.6174 53.6616 33.6174 53.0614 33.2341 52.6917C31.2299 50.7257 30.1319 48.0953 30.1319 45.2993C30.1319 39.5796 34.7918 34.9198 40.5114 34.9198C46.2309 34.9198 50.8908 39.5797 50.8908 45.2993C50.8908 48.1717 49.7288 50.8531 47.6351 52.8321C47.2654 53.1895 47.2524 53.7896 47.6104 54.1852L47.6105 54.1853Z" fill="url(#paint0_linear_456_9699)"/>
<path d="M31.001 61.1431C30.6307 60.7728 30.0177 60.7728 29.648 61.1431L26.9924 63.7986L22.0257 58.8319L24.6812 56.1764C25.0004 55.8572 25.0515 55.3723 24.8217 55.002C23.7749 53.3039 23.009 51.4653 22.5493 49.5375C22.447 49.1031 22.0644 48.7969 21.6171 48.7969H17.8765V41.7747H21.6171C22.0638 41.7747 22.447 41.4685 22.5493 41.0341C23.0089 39.1063 23.7625 37.2677 24.8217 35.5696C25.0515 35.1864 25.0004 34.7015 24.6812 34.3952L22.0257 31.7397L26.9924 26.773L29.648 29.4285C29.9671 29.7477 30.452 29.7988 30.8353 29.569C32.5333 28.5222 34.3719 27.7563 36.2998 27.2966C36.7341 27.1943 37.0404 26.8117 37.0404 26.3644V22.6238H44.0496V26.3644C44.0496 26.8111 44.3558 27.1943 44.7902 27.2966C46.718 27.7433 48.5566 28.5097 50.2547 29.569C50.625 29.7988 51.1228 29.7477 51.442 29.4285L54.0975 26.773L59.0642 31.7397L56.4087 34.3952C56.0896 34.7144 56.0384 35.1993 56.2683 35.5696C57.3151 37.2677 58.081 39.1063 58.5407 41.0341C58.6429 41.4685 59.0256 41.7747 59.4729 41.7747H63.2134V48.7969H59.4729C59.0262 48.7969 58.6429 49.1031 58.5407 49.5375C58.081 51.4653 57.3275 53.3039 56.2683 55.002C56.0384 55.3852 56.0896 55.8701 56.4087 56.1764L59.0642 58.8319L54.0975 63.7986L51.442 61.1431C51.0717 60.7728 50.4586 60.7728 50.0889 61.1431C49.7186 61.5134 49.7186 62.1265 50.0889 62.4962L53.4211 65.8284C53.7914 66.1986 54.4045 66.1986 54.7742 65.8284L61.0939 59.5086C61.4642 59.1383 61.4642 58.5252 61.0939 58.1555L58.2979 55.3595C59.1278 53.8912 59.7791 52.3337 60.2257 50.7248H64.1839C64.7076 50.7248 65.1414 50.2905 65.1414 49.7673V40.8301C65.1414 40.3064 64.707 39.8726 64.1839 39.8726H60.2257C59.779 38.251 59.1407 36.6933 58.2979 35.238L61.0939 32.429C61.4642 32.0587 61.4642 31.4456 61.0939 31.0759L54.7742 24.7561C54.4168 24.3988 53.7785 24.3988 53.4211 24.7561L50.6251 27.5651C49.1568 26.7352 47.5992 26.0839 45.9904 25.6373V21.6792C45.9904 21.1555 45.556 20.7217 45.0329 20.7217L36.07 20.7223C35.5463 20.7223 35.1125 21.1566 35.1125 21.6798V25.6379C33.4909 26.0846 31.9332 26.7229 30.4778 27.5657L27.6818 24.7567C27.5031 24.578 27.2603 24.4758 27.0053 24.4758C26.7502 24.4758 26.5074 24.578 26.3287 24.7567L20.0083 31.0636C19.6381 31.4339 19.6381 32.0469 20.0083 32.4166L22.8044 35.2256C21.9745 36.6939 21.3232 38.2514 20.8766 39.8603H16.9184C16.3947 39.8603 15.9609 40.2946 15.9609 40.8178V49.755C15.9609 50.2787 16.3953 50.7125 16.9184 50.7125H20.8766C21.3233 52.3341 21.9616 53.8918 22.8044 55.3471L20.0083 58.1432C19.8297 58.3218 19.7274 58.5646 19.7274 58.8197C19.7274 59.0748 19.8297 59.3175 20.0083 59.4962L26.3281 65.816C26.5197 66.0076 26.7625 66.097 27.0047 66.097C27.2474 66.097 27.4896 66.0076 27.6812 65.816L31.0134 62.4838C31.3713 62.1265 31.3713 61.5134 31.001 61.1431Z" fill="url(#paint1_linear_456_9699)"/>
<defs>
<linearGradient id="paint0_linear_456_9699" x1="28.2168" y1="33.0042" x2="54.2366" y2="34.903" gradientUnits="userSpaceOnUse">
<stop stop-color="#FD4524"/>
<stop offset="1" stop-color="#F0684B"/>
</linearGradient>
<linearGradient id="paint1_linear_456_9699" x1="15.9609" y1="20.7217" x2="68.0289" y2="24.3197" gradientUnits="userSpaceOnUse">
<stop stop-color="#FD4524"/>
<stop offset="1" stop-color="#F0684B"/>
</linearGradient>
</defs>
</svg>
