<svg width="83" height="80" viewBox="0 0 83 80" fill="none" xmlns="http://www.w3.org/2000/svg">
<path d="M26.1055 19H51.3683V21H26.1055V19Z" fill="url(#paint0_linear_456_9678)"/>
<path d="M5.3153 73.6834V74.6833L6.31527 74.6834L28.093 74.684C28.0554 75.9466 28.0521 77.3792 28.0922 79H4.2102C2.44507 79 1 77.5523 1 75.7898V4.21151C1 2.4458 2.44574 0.999511 4.20992 1H4.21019L63.1579 1.00064C64.9194 1.00064 66.3681 2.44685 66.3681 4.2115V25.6093C64.9932 24.9278 63.5317 24.4335 62.0528 24.1359V6.31528V5.31528H61.0528H6.3153H5.3153V6.31528V73.6834Z" stroke="#3D8C95" stroke-width="2"/>
<path d="M44.0577 37H26.1055V39H43.9836C43.8646 38.3738 43.8279 37.8685 43.9154 37.4478C43.945 37.2948 44.0061 37.1485 44.0582 37L44.0577 37Z" fill="url(#paint1_linear_456_9678)"/>
<path d="M26.1055 58H41.9901C42.8359 57.8445 43.694 57.6872 44.5416 57.521C45.7366 57.2833 46.6892 57.0878 47.4423 56.9281C47.1021 56.6696 46.7637 56.3583 46.4473 56H26.106L26.1055 58Z" fill="url(#paint2_linear_456_9678)"/>
<path d="M81.1567 68.5473L81.1735 68.5735C81.2494 68.7029 81.35 68.9526 81.4504 69.358C81.5536 69.7745 81.6411 70.2888 81.7131 70.8765C81.8569 72.0513 81.9306 73.449 81.9635 74.8044C81.9962 76.1559 81.988 77.4462 81.9715 78.3999C81.9677 78.619 81.9634 78.8201 81.9591 78.9999H34.7098C34.7056 78.8202 34.7014 78.6192 34.6977 78.4002C34.6814 77.4466 34.6735 76.1563 34.7065 74.8049C34.7396 73.4494 34.8135 72.0518 34.9574 70.8769C35.0295 70.2891 35.1169 69.7747 35.2201 69.3582C35.3276 68.9244 35.4352 68.6687 35.5127 68.5478L35.5128 68.5477C35.7768 68.1362 36.2367 67.7055 36.9278 67.2534C37.6131 66.805 38.4707 66.3707 39.4699 65.9291C40.6188 65.4213 41.8563 64.9435 43.1717 64.4355C44.2095 64.0348 45.2959 63.6153 46.4256 63.1476L46.4291 63.1461C48.8964 62.1135 50.4318 61.4165 51.3561 60.9743C51.8184 60.7532 52.1295 60.5949 52.3291 60.4896C52.4289 60.4369 52.5013 60.3972 52.551 60.3693C52.5578 60.3655 52.5642 60.3619 52.5702 60.3585C52.5861 60.3495 52.5992 60.3419 52.6096 60.3359L52.6275 60.3254L52.6338 60.3216L52.6363 60.3201L52.6375 60.3194L52.638 60.3191C52.6382 60.319 52.6385 60.3188 52.1211 59.4631L52.6385 60.3188L53.1156 60.0304L53.121 59.4729L53.1673 54.7455L53.1722 54.2477L52.7882 53.9516C52.7841 53.9482 52.7763 53.9413 52.765 53.9309C52.7359 53.904 52.6838 53.8535 52.6145 53.7763C52.4762 53.6221 52.2679 53.36 52.0367 52.9647C51.5759 52.177 51.0125 50.8409 50.7427 48.7455L50.5933 47.5851L49.4888 47.908C49.4742 47.904 49.4462 47.8934 49.4017 47.8672C49.2772 47.7939 49.1094 47.643 48.9309 47.4038C48.557 46.9027 48.3433 46.3018 48.328 46.0117L48.328 46.0117L48.3273 46.0002C48.299 45.5608 48.3348 44.6971 48.521 44.0172C48.6043 43.7129 48.6959 43.5286 48.7626 43.4363L50.0614 43.7069L49.8815 42.3133C49.595 40.094 49.4014 38.262 49.4894 37.3623L49.4895 37.3614C49.8034 34.1229 53.0685 30.4749 58.3329 30.4749C63.6026 30.4749 66.8643 34.1207 67.1825 37.3596C67.2665 38.2627 67.0741 40.0973 66.7906 42.3145L66.6125 43.7068L67.9075 43.4368C67.9743 43.5295 68.0657 43.7139 68.1489 44.0176C68.3352 44.6977 68.371 45.5607 68.3418 45.9977L68.3417 45.9998C68.3223 46.2999 68.1042 46.9062 67.7332 47.406C67.5553 47.6456 67.3889 47.7957 67.2661 47.8683C67.2232 47.8936 67.1961 47.9041 67.1818 47.9081L66.0765 47.5848L65.9275 48.7459C65.6586 50.8408 65.0947 52.1765 64.6331 52.964C64.4015 53.3591 64.1929 53.6212 64.0542 53.7754C63.9847 53.8526 63.9325 53.9031 63.9033 53.93C63.8919 53.9404 63.8841 53.9473 63.88 53.9508L63.4947 54.2471L63.4998 54.746L63.5487 59.4734L63.5545 60.0306L64.0314 60.3189L64.5487 59.4631C64.0314 60.3189 64.0316 60.319 64.0319 60.3192L64.0324 60.3195L64.0335 60.3202L64.036 60.3217L64.0424 60.3255L64.0602 60.336C64.0746 60.3443 64.0939 60.3554 64.1188 60.3693C64.1685 60.3973 64.2409 60.437 64.3408 60.4897C64.5404 60.595 64.8515 60.7532 65.3139 60.9744C66.2382 61.4165 67.7736 62.1135 70.2406 63.1461L70.2444 63.1477C71.3723 63.6144 72.4572 64.0332 73.4936 64.4332C74.8117 64.9421 76.0514 65.4206 77.2014 65.9289C78.2005 66.3704 79.0578 66.8047 79.7428 67.2531C80.4335 67.7052 80.893 68.1358 81.1567 68.5473ZM49.5013 47.9101C49.5013 47.9103 49.4991 47.9104 49.4942 47.9093C49.4987 47.9093 49.5012 47.9098 49.5013 47.9101ZM67.1693 47.9102C67.1695 47.9099 67.172 47.9094 67.1764 47.9095C67.1714 47.9106 67.1691 47.9105 67.1693 47.9102Z" stroke="#3D8C95" stroke-width="2"/>
<path d="M12.674 22.421L14.9874 20.1072L15.6944 19.4L14.9872 18.693L12.6753 16.3815L13.6422 15.4144L15.954 17.7268L16.6611 18.434L17.3683 17.7269L19.6815 15.4142L20.6487 16.3817L18.3364 18.6944L17.6295 19.4015L18.3364 20.1085L20.6487 22.4212L19.6815 23.3887L17.3683 21.076L16.6611 20.369L15.954 21.0762L13.642 23.3887L12.674 22.421Z" fill="url(#paint3_linear_456_9678)" stroke="url(#paint4_linear_456_9678)" stroke-width="2"/>
<path d="M14.5781 38.9473L15.2853 39.6539L15.9921 38.947L20.5244 34.4142L21.4923 35.3818L15.285 41.5897L11.8342 38.1385L12.8012 37.1718L14.5781 38.9473Z" fill="url(#paint5_linear_456_9678)" stroke="url(#paint6_linear_456_9678)" stroke-width="2"/>
<path d="M14.5779 57.9458L15.285 58.6527L15.992 57.9458L20.5241 53.4143L21.4924 54.3829L15.2851 60.5892L11.8339 57.1375L12.8013 56.1696L14.5779 57.9458Z" fill="url(#paint7_linear_456_9678)" stroke="url(#paint8_linear_456_9678)" stroke-width="2"/>
<defs>
<linearGradient id="paint0_linear_456_9678" x1="26.1055" y1="19" x2="42.4043" y2="32.1286" gradientUnits="userSpaceOnUse">
<stop stop-color="#FD4524"/>
<stop offset="1" stop-color="#F0684B"/>
</linearGradient>
<linearGradient id="paint1_linear_456_9678" x1="26.1055" y1="37" x2="40.4899" y2="45.2338" gradientUnits="userSpaceOnUse">
<stop stop-color="#FD4524"/>
<stop offset="1" stop-color="#F0684B"/>
</linearGradient>
<linearGradient id="paint2_linear_456_9678" x1="26.1055" y1="56" x2="41.6216" y2="66.5559" gradientUnits="userSpaceOnUse">
<stop stop-color="#FD4524"/>
<stop offset="1" stop-color="#F0684B"/>
</linearGradient>
<linearGradient id="paint3_linear_456_9678" x1="11.2598" y1="14" x2="22.705" y2="14.7299" gradientUnits="userSpaceOnUse">
<stop stop-color="#FD4524"/>
<stop offset="1" stop-color="#F0684B"/>
</linearGradient>
<linearGradient id="paint4_linear_456_9678" x1="11.2598" y1="14" x2="22.705" y2="14.7299" gradientUnits="userSpaceOnUse">
<stop stop-color="#FD4524"/>
<stop offset="1" stop-color="#F0684B"/>
</linearGradient>
<linearGradient id="paint5_linear_456_9678" x1="10.4199" y1="33" x2="23.6192" y2="34.0506" gradientUnits="userSpaceOnUse">
<stop stop-color="#FD4524"/>
<stop offset="1" stop-color="#F0684B"/>
</linearGradient>
<linearGradient id="paint6_linear_456_9678" x1="10.4199" y1="33" x2="23.6192" y2="34.0506" gradientUnits="userSpaceOnUse">
<stop stop-color="#FD4524"/>
<stop offset="1" stop-color="#F0684B"/>
</linearGradient>
<linearGradient id="paint7_linear_456_9678" x1="10.4199" y1="52" x2="23.6192" y2="53.0507" gradientUnits="userSpaceOnUse">
<stop stop-color="#FD4524"/>
<stop offset="1" stop-color="#F0684B"/>
</linearGradient>
<linearGradient id="paint8_linear_456_9678" x1="10.4199" y1="52" x2="23.6192" y2="53.0507" gradientUnits="userSpaceOnUse">
<stop stop-color="#FD4524"/>
<stop offset="1" stop-color="#F0684B"/>
</linearGradient>
</defs>
</svg>
