<svg width="80" height="80" viewBox="0 0 80 80" fill="none" xmlns="http://www.w3.org/2000/svg">
<g clip-path="url(#clip0_456_9688)">
<path d="M24.9399 29.4518C25.0931 29.7805 25.337 30.0586 25.6429 30.2535C25.9487 30.4484 26.3039 30.5518 26.6666 30.5518H26.6923L32.0694 30.4789C33.0771 31.5786 34.3025 32.4567 35.6678 33.0574C37.0331 33.6581 38.5083 33.9683 39.9999 33.9683C41.4915 33.9683 42.9667 33.6581 44.332 33.0574C45.6972 32.4567 46.9227 31.5786 47.9304 30.4789L53.3075 30.5518H53.3332C53.6981 30.5518 54.0553 30.447 54.3623 30.2499C54.6694 30.0528 54.9134 29.7717 55.0653 29.4399C55.2171 29.1082 55.2705 28.7398 55.2191 28.3785C55.1677 28.0173 55.0136 27.6784 54.7751 27.4023L51.0132 23.0456C51.0208 22.8748 51.0247 22.7061 51.0247 22.5394C51.0247 16.238 46.0789 11.1108 39.9999 11.1108C33.9208 11.1108 28.9751 16.238 28.9751 22.5394C28.9751 22.7058 28.9789 22.8745 28.9866 23.0456L25.2247 27.4027C24.9848 27.6806 24.8304 28.0217 24.7799 28.3852C24.7293 28.7488 24.7849 29.1191 24.9399 29.4518ZM30.948 23.6885C30.9033 23.3071 30.8806 22.9234 30.8799 22.5394C30.8799 17.2799 34.9627 13.0156 39.9999 13.0156C45.037 13.0156 49.1199 17.2799 49.1199 22.5394C49.1192 22.9234 49.0965 23.3071 49.0518 23.6885L53.3332 28.647L47.0642 28.5623C46.236 29.6506 45.1675 30.5329 43.9421 31.1402C42.7167 31.7476 41.3675 32.0636 39.9999 32.0636C38.6322 32.0636 37.2831 31.7476 36.0577 31.1402C34.8323 30.5329 33.7638 29.6506 32.9356 28.5623L26.6666 28.647L30.948 23.6885Z" fill="#3D8C95"/>
<path d="M39.3793 27.7991V28.6452C39.3793 28.8317 39.4534 29.0104 39.5852 29.1422C39.717 29.274 39.8958 29.3481 40.0822 29.3481C40.2686 29.3481 40.4474 29.274 40.5792 29.1422C40.711 29.0104 40.7851 28.8317 40.7851 28.6452V27.7991C42.8103 27.6029 43.8684 26.5148 43.8684 24.8519C43.8684 21.0738 38.3517 21.9952 38.3517 20.0157C38.3517 19.411 38.8203 18.8219 40.0746 18.8219C40.8553 18.8149 41.6104 19.1006 42.1908 19.6229C42.3579 19.8115 42.59 19.9302 42.8408 19.9552C43.0551 19.9569 43.2613 19.8735 43.4142 19.7234C43.5671 19.5732 43.6542 19.3686 43.6565 19.1543C43.6552 18.9816 43.6027 18.8132 43.5055 18.6705C43.1676 18.2716 42.7523 17.9454 42.2847 17.7117C41.8171 17.4779 41.3069 17.3414 40.7851 17.3105V16.4338C40.7851 16.2474 40.711 16.0686 40.5792 15.9368C40.4474 15.805 40.2686 15.731 40.0822 15.731C39.8958 15.731 39.717 15.805 39.5852 15.9368C39.4534 16.0686 39.3793 16.2474 39.3793 16.4338V17.2952C37.4451 17.5067 36.5989 18.6705 36.5989 20.0157C36.5989 23.6581 42.1155 22.6457 42.1155 24.8519C42.1155 25.7891 41.4503 26.2424 40.0746 26.2424C39.6053 26.2288 39.1436 26.1199 38.7176 25.9225C38.2917 25.725 37.9102 25.4431 37.5965 25.0938C37.5163 24.9935 37.4153 24.9118 37.3004 24.8544C37.1856 24.797 37.0596 24.7653 36.9313 24.7614C36.7876 24.7635 36.6471 24.8036 36.524 24.8776C36.4009 24.9517 36.2996 25.057 36.2304 25.1829C36.1613 25.3088 36.1267 25.4508 36.1303 25.5944C36.1339 25.7381 36.1754 25.8782 36.2508 26.0005C36.6125 26.5074 37.0791 26.9304 37.619 27.2408C38.1589 27.5512 38.7593 27.7416 39.3793 27.7991ZM18.4279 30.6348C19.3697 30.6348 20.2904 30.3555 21.0735 29.8322C21.8566 29.309 22.4669 28.5653 22.8273 27.6952C23.1878 26.825 23.2821 25.8676 23.0983 24.9439C22.9146 24.0201 22.4611 23.1717 21.7951 22.5057C21.1291 21.8397 20.2806 21.3862 19.3569 21.2025C18.4332 21.0187 17.4757 21.113 16.6056 21.4734C15.7355 21.8339 14.9918 22.4442 14.4685 23.2273C13.9453 24.0104 13.666 24.931 13.666 25.8729C13.6674 27.1354 14.1695 28.3458 15.0623 29.2385C15.955 30.1312 17.1654 30.6334 18.4279 30.6348ZM18.4279 23.0157C18.993 23.0157 19.5454 23.1833 20.0153 23.4972C20.4851 23.8112 20.8513 24.2574 21.0676 24.7795C21.2838 25.3016 21.3404 25.876 21.2302 26.4303C21.1199 26.9845 20.8478 27.4936 20.4482 27.8932C20.0486 28.2927 19.5396 28.5649 18.9853 28.6751C18.4311 28.7853 17.8566 28.7288 17.3345 28.5125C16.8125 28.2963 16.3662 27.9301 16.0523 27.4602C15.7383 26.9903 15.5708 26.438 15.5708 25.8729C15.5717 25.1154 15.873 24.3892 16.4086 23.8535C16.9442 23.3179 17.6704 23.0166 18.4279 23.0157ZM60.2803 30.4524C60.2979 30.4571 60.3165 30.4614 60.3341 30.4667C60.4986 30.5106 60.6654 30.5455 60.8336 30.5714L60.886 30.58C62.1066 30.7551 63.3475 30.4487 64.3463 29.7255C65.3451 29.0024 66.0236 27.9193 66.2383 26.705C66.4531 25.4908 66.1873 24.2406 65.4971 23.2187C64.8069 22.1969 63.7465 21.4834 62.5399 21.2292C61.3333 20.975 60.0751 21.1999 59.0313 21.8564C57.9875 22.5129 57.2398 23.5496 56.9464 24.7473C56.653 25.945 56.8368 27.2098 57.4589 28.2744C58.0811 29.3391 59.0928 30.1201 60.2803 30.4524ZM61.5708 23.0157C62.1359 23.0157 62.6883 23.1833 63.1581 23.4972C63.628 23.8112 63.9942 24.2574 64.2104 24.7795C64.4267 25.3016 64.4833 25.876 64.373 26.4303C64.2628 26.9845 63.9907 27.4936 63.5911 27.8932C63.1915 28.2927 62.6824 28.5649 62.1282 28.6751C61.5739 28.7853 60.9995 28.7288 60.4774 28.5125C59.9553 28.2963 59.5091 27.9301 59.1951 27.4602C58.8812 26.9903 58.7136 26.438 58.7136 25.8729C58.7145 25.1154 59.0158 24.3892 59.5514 23.8535C60.0871 23.3179 60.8133 23.0166 61.5708 23.0157Z" fill="url(#paint0_linear_456_9688)"/>
<path d="M0.952381 72.0632C1.47837 72.0632 1.90476 71.6368 1.90476 71.1108C1.90476 70.5848 1.47837 70.1584 0.952381 70.1584C0.426395 70.1584 0 70.5848 0 71.1108C0 71.6368 0.426395 72.0632 0.952381 72.0632Z" fill="#3D8C95"/>
<path d="M5.23837 70.1584H3.8098C3.55722 70.1584 3.31497 70.2588 3.13637 70.4374C2.95776 70.616 2.85742 70.8582 2.85742 71.1108C2.85742 71.3634 2.95776 71.6057 3.13637 71.7843C3.31497 71.9629 3.55722 72.0632 3.8098 72.0632H5.23837C5.49096 72.0632 5.7332 71.9629 5.91181 71.7843C6.09042 71.6057 6.19076 71.3634 6.19076 71.1108C6.19076 70.8582 6.09042 70.616 5.91181 70.4374C5.7332 70.2588 5.49096 70.1584 5.23837 70.1584ZM76.1908 70.1584H74.7622C74.5096 70.1584 74.2674 70.2588 74.0888 70.4374C73.9101 70.616 73.8098 70.8582 73.8098 71.1108C73.8098 71.3634 73.9101 71.6057 74.0888 71.7843C74.2674 71.9629 74.5096 72.0632 74.7622 72.0632H76.1908C76.4433 72.0632 76.6856 71.9629 76.8642 71.7843C77.0428 71.6057 77.1431 71.3634 77.1431 71.1108C77.1431 70.8582 77.0428 70.616 76.8642 70.4374C76.6856 70.2588 76.4433 70.1584 76.1908 70.1584Z" fill="#3D8C95"/>
<path d="M79.0481 72.0632C79.5741 72.0632 80.0005 71.6368 80.0005 71.1108C80.0005 70.5848 79.5741 70.1584 79.0481 70.1584C78.5221 70.1584 78.0957 70.5848 78.0957 71.1108C78.0957 71.6368 78.5221 72.0632 79.0481 72.0632Z" fill="#3D8C95"/>
<path d="M56.2645 73.968H52.3083C52.0685 73.9866 51.8445 74.095 51.6811 74.2716C51.5177 74.4481 51.4269 74.6798 51.4269 74.9204C51.4269 75.161 51.5177 75.3927 51.6811 75.5692C51.8445 75.7458 52.0685 75.8542 52.3083 75.8728H56.2645C56.5043 75.8542 56.7283 75.7458 56.8917 75.5692C57.0551 75.3927 57.1459 75.161 57.1459 74.9204C57.1459 74.6798 57.0551 74.4481 56.8917 74.2716C56.7283 74.095 56.5043 73.9866 56.2645 73.968ZM27.6931 73.968H23.7369C23.497 73.9866 23.273 74.095 23.1096 74.2716C22.9462 74.4481 22.8555 74.6798 22.8555 74.9204C22.8555 75.161 22.9462 75.3927 23.1096 75.5692C23.273 75.7458 23.497 75.8542 23.7369 75.8728H27.6931C27.9329 75.8542 28.1569 75.7458 28.3203 75.5692C28.4837 75.3927 28.5745 75.161 28.5745 74.9204C28.5745 74.6798 28.4837 74.4481 28.3203 74.2716C28.1569 74.095 27.9329 73.9866 27.6931 73.968ZM49.5245 73.968H30.4769C30.2243 73.968 29.982 74.0684 29.8034 74.247C29.6248 74.4256 29.5245 74.6678 29.5245 74.9204C29.5245 75.173 29.6248 75.4152 29.8034 75.5938C29.982 75.7724 30.2243 75.8728 30.4769 75.8728H38.0674V76.8252H34.2864C34.0338 76.8252 33.7916 76.9255 33.613 77.1041C33.4344 77.2827 33.334 77.525 33.334 77.7775C33.334 78.0301 33.4344 78.2724 33.613 78.451C33.7916 78.6296 34.0338 78.7299 34.2864 78.7299H46.1912C46.4438 78.7299 46.686 78.6296 46.8646 78.451C47.0432 78.2724 47.1435 78.0301 47.1435 77.7775C47.1435 77.525 47.0432 77.2827 46.8646 77.1041C46.686 76.9255 46.4438 76.8252 46.1912 76.8252H41.934V75.8728H49.5245C49.7771 75.8728 50.0193 75.7724 50.1979 75.5938C50.3765 75.4152 50.4769 75.173 50.4769 74.9204C50.4769 74.6678 50.3765 74.4256 50.1979 74.247C50.0193 74.0684 49.7771 73.968 49.5245 73.968Z" fill="url(#paint1_linear_456_9688)"/>
<path d="M71.7726 70.1586H59.0483V54.9205H68.5721V67.3014C68.5721 67.554 68.6724 67.7963 68.851 67.9749C69.0296 68.1535 69.2719 68.2538 69.5245 68.2538C69.7771 68.2538 70.0193 68.1535 70.1979 67.9749C70.3765 67.7963 70.4769 67.554 70.4769 67.3014V53.9681C70.4769 53.7155 70.3765 53.4733 70.1979 53.2947C70.0193 53.1161 69.7771 53.0157 69.5245 53.0157H68.5721V33.9248C68.571 33.1921 68.3988 32.4699 68.0692 31.8156C67.7396 31.1613 67.2617 30.5931 66.6735 30.1562C66.2483 30.6608 65.7511 31.1 65.1978 31.4595C65.6415 31.7007 66.0121 32.0568 66.2707 32.4906C66.5293 32.9244 66.6663 33.4198 66.6673 33.9248V53.0157H57.1435C56.9616 53.0157 56.7834 53.0678 56.6302 53.1659C56.4769 53.264 56.355 53.4039 56.2787 53.5691L48.9435 69.4667C48.8478 69.6736 48.6948 69.8487 48.5026 69.9714C48.3105 70.0941 48.0872 70.1592 47.8592 70.1591C47.6706 70.1604 47.4845 70.1166 47.3163 70.0313C47.1481 69.946 47.0028 69.8216 46.8926 69.6686C46.7819 69.517 46.7094 69.341 46.6813 69.1555C46.6531 68.97 46.67 68.7804 46.7307 68.6029L52.3045 50.611C52.3639 50.4163 52.4844 50.2459 52.6482 50.1251C52.8121 50.0042 53.0104 49.9393 53.214 49.94H58.6307C58.8832 49.94 59.1255 49.8397 59.3041 49.6611C59.4827 49.4825 59.583 49.2402 59.583 48.9876V37.1029L62.6345 34.7186C62.8335 34.5631 62.9626 34.3348 62.9934 34.0841C63.0241 33.8334 62.954 33.5807 62.7985 33.3817C62.7215 33.2831 62.6258 33.2007 62.517 33.1391C62.4081 33.0775 62.2882 33.038 62.164 33.0228C61.9133 32.992 61.6606 33.0621 61.4616 33.2176L53.7973 39.2062H47.7083C47.4647 39.1929 47.2355 39.0867 47.0678 38.9096C46.9001 38.7324 46.8066 38.4978 46.8066 38.2538C46.8066 38.0099 46.9001 37.7752 47.0678 37.5981C47.2355 37.421 47.4647 37.3148 47.7083 37.3014H52.9564C53.1742 37.3015 53.3855 37.2269 53.5549 37.09L59.5692 32.2314C58.9013 32.0185 58.2712 31.701 57.7026 31.291L52.6197 35.3967H47.7083C46.958 35.4047 46.2415 35.7101 45.7161 36.2457C45.1906 36.7813 44.8991 37.5035 44.9054 38.2538C44.906 38.5782 44.9612 38.9002 45.0687 39.2062H34.9326C35.0401 38.9002 35.0953 38.5782 35.0959 38.2538C35.1022 37.5035 34.8107 36.7813 34.2853 36.2457C33.7598 35.7101 33.0433 35.4047 32.293 35.3967H27.3816L22.2992 31.291C21.7303 31.7011 21.0999 32.0186 20.4316 32.2314L26.4464 37.09C26.6158 37.2269 26.8271 37.3015 27.0449 37.3014H32.293C32.5366 37.3148 32.7658 37.421 32.9335 37.5981C33.1012 37.7752 33.1947 38.0099 33.1947 38.2538C33.1947 38.4978 33.1012 38.7324 32.9335 38.9096C32.7658 39.0867 32.5366 39.1929 32.293 39.2062H26.2035L18.5397 33.2176C18.3407 33.0621 18.088 32.992 17.8373 33.0228C17.5866 33.0535 17.3583 33.1826 17.2028 33.3817C17.0473 33.5807 16.9772 33.8334 17.0079 34.0841C17.0387 34.3348 17.1678 34.5631 17.3668 34.7186L20.4183 37.1034V48.9872C20.4183 49.2397 20.5186 49.482 20.6972 49.6606C20.8758 49.8392 21.1181 49.9395 21.3707 49.9395H26.7873C26.9909 49.9389 27.1892 50.0037 27.3531 50.1246C27.5169 50.2454 27.6374 50.4158 27.6968 50.6105L33.2745 68.6162C33.3327 68.792 33.3481 68.9792 33.3192 69.1621C33.2902 69.345 33.2179 69.5184 33.1083 69.6676C32.9981 69.8207 32.8529 69.9451 32.6848 70.0305C32.5167 70.1159 32.3306 70.1598 32.1421 70.1586C31.9136 70.1587 31.6898 70.0933 31.4974 69.9701C31.3049 69.8468 31.1519 69.671 31.0564 69.4633L23.723 53.5691C23.6468 53.4038 23.5247 53.2638 23.3714 53.1658C23.2181 53.0677 23.0398 53.0156 22.8578 53.0157H13.334V33.9248C13.335 33.4198 13.472 32.9244 13.7306 32.4906C13.9892 32.0568 14.3598 31.7007 14.8035 31.4595C14.2502 31.1 13.753 30.6608 13.3278 30.1562C12.7397 30.5931 12.2617 31.1613 11.9321 31.8156C11.6025 32.4699 11.4303 33.1921 11.4292 33.9248V53.0157H10.4768C10.2243 53.0157 9.98202 53.1161 9.80341 53.2947C9.6248 53.4733 9.52446 53.7155 9.52446 53.9681V67.3014C9.52446 67.554 9.6248 67.7963 9.80341 67.9749C9.98202 68.1535 10.2243 68.2538 10.4768 68.2538C10.7294 68.2538 10.9717 68.1535 11.1503 67.9749C11.3289 67.7963 11.4292 67.554 11.4292 67.3014V54.9205H20.953V70.1586H8.22875C8.09326 70.1409 7.95556 70.1523 7.82483 70.1921C7.6941 70.2318 7.57336 70.299 7.47067 70.3892C7.36799 70.4793 7.28571 70.5903 7.22935 70.7148C7.17299 70.8393 7.14384 70.9743 7.14384 71.111C7.14384 71.2476 7.17299 71.3827 7.22935 71.5071C7.28571 71.6316 7.36799 71.7426 7.47067 71.8328C7.57336 71.9229 7.6941 71.9901 7.82483 72.0299C7.95556 72.0696 8.09326 72.081 8.22875 72.0633H71.7721C71.9076 72.081 72.0453 72.0696 72.176 72.0299C72.3067 71.9901 72.4275 71.9229 72.5302 71.8328C72.6329 71.7426 72.7151 71.6316 72.7715 71.5071C72.8279 71.3827 72.857 71.2476 72.857 71.111C72.857 70.9743 72.8279 70.8393 72.7715 70.7148C72.7151 70.5903 72.6329 70.4793 72.5302 70.3892C72.4275 70.299 72.3067 70.2318 72.176 70.1921C72.0453 70.1523 71.9081 70.1409 71.7726 70.1586ZM57.1435 56.2419V70.1586H50.7221L57.1435 56.2419ZM55.953 43.9681V40.1586C55.9528 40.0907 55.9453 40.023 55.9307 39.9567L57.6783 38.5914V48.0348H53.214C52.6034 48.0327 52.0084 48.2272 51.517 48.5895C51.0256 48.9519 50.6639 49.4628 50.4854 50.0467L44.9159 68.0253C44.6845 68.7229 44.7136 69.4807 44.9978 70.1586H42.8578V44.9205H55.0007C55.2532 44.9205 55.4955 44.8202 55.6741 44.6416C55.8527 44.4629 55.953 44.2207 55.953 43.9681ZM40.953 70.1586H39.0483V44.9205H40.953V70.1586ZM25.953 41.111H54.0483V43.0157H25.953V41.111ZM35.0897 68.0391L29.5159 50.0467C29.3374 49.4628 28.9757 48.9519 28.4843 48.5895C27.9929 48.2272 27.3979 48.0327 26.7873 48.0348H22.323V38.5919L24.0707 39.9572C24.0561 40.0233 24.0485 40.0908 24.0483 40.1586V43.9681C24.0483 44.2207 24.1486 44.4629 24.3272 44.6416C24.5058 44.8202 24.7481 44.9205 25.0007 44.9205H37.1435V70.1586H35.0035C35.2872 69.4856 35.3181 68.7327 35.0897 68.0391ZM22.8578 56.2419L29.2792 70.1586H22.8578V56.2419ZM36.9711 8.41288C37.2537 8.41288 37.5299 8.32909 37.7648 8.17212C37.9997 8.01515 38.1828 7.79203 38.291 7.531C38.3991 7.26996 38.4274 6.98272 38.3722 6.70561C38.3171 6.42849 38.1811 6.17394 37.9813 5.97415C37.7815 5.77436 37.5269 5.63831 37.2498 5.58318C36.9727 5.52806 36.6855 5.55635 36.4244 5.66448C36.1634 5.7726 35.9403 5.95571 35.7833 6.19063C35.6263 6.42556 35.5426 6.70176 35.5426 6.98431C35.5429 7.36307 35.6936 7.72621 35.9614 7.99404C36.2292 8.26187 36.5924 8.4125 36.9711 8.41288ZM36.9711 6.27002C37.1124 6.27002 37.2505 6.31191 37.368 6.3904C37.4854 6.46889 37.577 6.58044 37.631 6.71096C37.6851 6.84148 37.6993 6.9851 37.6717 7.12366C37.6441 7.26221 37.5761 7.38949 37.4762 7.48938C37.3763 7.58928 37.249 7.65731 37.1105 7.68487C36.9719 7.71243 36.8283 7.69828 36.6978 7.64422C36.5673 7.59016 36.4557 7.49861 36.3772 7.38114C36.2987 7.26368 36.2568 7.12558 36.2568 6.98431C36.257 6.7949 36.3323 6.6133 36.4662 6.47937C36.6001 6.34544 36.7817 6.27015 36.9711 6.27002ZM76.6673 27.1429C76.479 27.1429 76.2948 27.1987 76.1382 27.3034C75.9816 27.408 75.8595 27.5568 75.7874 27.7308C75.7154 27.9048 75.6965 28.0963 75.7332 28.2811C75.77 28.4658 75.8607 28.6355 75.9939 28.7687C76.1271 28.9019 76.2968 28.9926 76.4815 29.0293C76.6663 29.0661 76.8578 29.0472 77.0318 28.9751C77.2058 28.9031 77.3545 28.781 77.4592 28.6244C77.5639 28.4678 77.6197 28.2836 77.6197 28.0953C77.6195 27.8427 77.519 27.6007 77.3405 27.4221C77.1619 27.2436 76.9198 27.1431 76.6673 27.1429ZM76.6673 28.5714C76.5731 28.5714 76.4811 28.5435 76.4028 28.4912C76.3245 28.4389 76.2634 28.3645 76.2274 28.2775C76.1913 28.1905 76.1819 28.0947 76.2003 28.0024C76.2187 27.91 76.264 27.8251 76.3306 27.7585C76.3972 27.6919 76.4821 27.6466 76.5744 27.6282C76.6668 27.6098 76.7625 27.6193 76.8496 27.6553C76.9366 27.6914 77.0109 27.7524 77.0633 27.8307C77.1156 27.909 77.1435 28.0011 77.1435 28.0953C77.1434 28.2215 77.0932 28.3426 77.0039 28.4318C76.9146 28.5211 76.7936 28.5713 76.6673 28.5714ZM55.8735 15.3967C55.6852 15.3967 55.501 15.4525 55.3444 15.5572C55.1878 15.6618 55.0657 15.8106 54.9936 15.9846C54.9215 16.1586 54.9027 16.3501 54.9394 16.5349C54.9762 16.7196 55.0669 16.8893 55.2001 17.0225C55.3333 17.1557 55.503 17.2464 55.6877 17.2831C55.8725 17.3199 56.0639 17.301 56.238 17.229C56.412 17.1569 56.5607 17.0348 56.6654 16.8782C56.77 16.7216 56.8259 16.5374 56.8259 16.3491C56.8256 16.0966 56.7252 15.8545 56.5467 15.6759C56.3681 15.4974 56.126 15.3969 55.8735 15.3967ZM55.8735 16.8253C55.7793 16.8253 55.6873 16.7973 55.609 16.745C55.5306 16.6927 55.4696 16.6183 55.4336 16.5313C55.3975 16.4443 55.3881 16.3485 55.4065 16.2562C55.4248 16.1638 55.4702 16.0789 55.5368 16.0123C55.6034 15.9458 55.6882 15.9004 55.7806 15.882C55.873 15.8637 55.9687 15.8731 56.0557 15.9091C56.1428 15.9452 56.2171 16.0062 56.2694 16.0845C56.3218 16.1628 56.3497 16.2549 56.3497 16.3491C56.3496 16.4753 56.2994 16.5964 56.2101 16.6856C56.1208 16.7749 55.9998 16.8251 55.8735 16.8253ZM76.0326 1.27002C75.8442 1.27002 75.6601 1.32588 75.5034 1.43052C75.3468 1.53517 75.2248 1.68392 75.1527 1.85794C75.0806 2.03196 75.0617 2.22346 75.0985 2.4082C75.1352 2.59294 75.2259 2.76264 75.3591 2.89584C75.4923 3.02903 75.662 3.11973 75.8468 3.15648C76.0315 3.19323 76.223 3.17437 76.397 3.10229C76.5711 3.0302 76.7198 2.90813 76.8244 2.75152C76.9291 2.5949 76.9849 2.41076 76.9849 2.2224C76.9847 1.96989 76.8843 1.7278 76.7057 1.54924C76.5272 1.37069 76.2851 1.27027 76.0326 1.27002ZM76.0326 2.69859C75.9384 2.69859 75.8463 2.67066 75.768 2.61834C75.6897 2.56601 75.6287 2.49164 75.5926 2.40463C75.5566 2.31762 75.5471 2.22187 75.5655 2.1295C75.5839 2.03713 75.6292 1.95228 75.6958 1.88568C75.7624 1.81909 75.8473 1.77373 75.9397 1.75536C76.032 1.73699 76.1278 1.74642 76.2148 1.78246C76.3018 1.8185 76.3762 1.87953 76.4285 1.95784C76.4808 2.03615 76.5088 2.12822 76.5088 2.2224C76.5086 2.34866 76.4584 2.4697 76.3691 2.55898C76.2799 2.64825 76.1588 2.69846 76.0326 2.69859ZM5.87351 24.9205C5.87351 24.7321 5.81766 24.548 5.71301 24.3914C5.60836 24.2348 5.45962 24.1127 5.28559 24.0406C5.11157 23.9685 4.92007 23.9497 4.73533 23.9864C4.55059 24.0232 4.38089 24.1139 4.2477 24.2471C4.1145 24.3803 4.0238 24.55 3.98705 24.7347C3.9503 24.9194 3.96916 25.1109 4.04125 25.285C4.11333 25.459 4.2354 25.6077 4.39202 25.7124C4.54864 25.817 4.73277 25.8729 4.92113 25.8729C5.17364 25.8726 5.41574 25.7722 5.59429 25.5937C5.77284 25.4151 5.87326 25.173 5.87351 24.9205ZM4.44494 24.9205C4.44494 24.8263 4.47287 24.7342 4.52519 24.6559C4.57752 24.5776 4.65189 24.5166 4.7389 24.4806C4.82591 24.4445 4.92166 24.4351 5.01403 24.4535C5.1064 24.4718 5.19125 24.5172 5.25785 24.5838C5.32445 24.6504 5.3698 24.7352 5.38817 24.8276C5.40655 24.92 5.39712 25.0157 5.36107 25.1027C5.32503 25.1897 5.264 25.2641 5.18569 25.3164C5.10738 25.3688 5.01531 25.3967 4.92113 25.3967C4.79488 25.3966 4.67383 25.3463 4.58455 25.2571C4.49528 25.1678 4.44507 25.0468 4.44494 24.9205Z" fill="#3D8C95"/>
<path d="M4.44383 3.57093L5.15192 2.63998L4.70478 2.38665L4.25049 3.4295H4.23526L3.77383 2.39379L3.31859 2.65474L4.01954 3.56379V3.57855L2.92383 3.43712V3.94379L4.02669 3.80236V3.81712L3.31859 4.72569L3.74335 4.99427L4.22811 3.94379H4.2424L4.68954 4.98665L5.15907 4.71855L4.44383 3.82427V3.8095L5.56859 3.94379V3.43712L4.44383 3.58617V3.57093ZM17.1853 12.4666L16.7776 12.99L17.0219 13.1447L17.301 12.5395H17.3095L17.5672 13.1405L17.8372 12.9862L17.4257 12.4709V12.4624L18.0734 12.5395V12.2481L17.4257 12.3338V12.3252L17.8334 11.789L17.5757 11.6428L17.3138 12.2438H17.3053L17.0395 11.6471L16.7776 11.7976L17.181 12.3209V12.3295L16.55 12.2481V12.5395L17.1853 12.4581V12.4666ZM69.9857 16.2128V15.7157L68.8829 15.8619V15.8471L69.5772 14.9338L69.1386 14.6857L68.6929 15.7086H68.6781L68.2253 14.6928L67.7791 14.9486L68.4662 15.84V15.8547L67.3914 15.7157V16.2128L68.4734 16.0743V16.0886L67.7791 16.98L68.1953 17.2433L68.671 16.2128H68.6853L69.1238 17.2357L69.5843 16.9728L68.8829 16.0957V16.0814L69.9857 16.2128ZM57.4986 3.13617L58.0976 2.34807L57.7191 2.13379L57.3348 3.01617H57.3219L56.9314 2.13998L56.5462 2.36093L57.1391 3.12998V3.14236L56.2124 3.02284V3.45141L57.1453 3.33141V3.34427L56.5462 4.11331L56.9057 4.34046L57.3157 3.45141H57.3281L57.7067 4.33379L58.1038 4.10712L57.4986 3.35046V3.3376L58.45 3.45141V3.02284L57.4986 3.14855V3.13617Z" fill="url(#paint2_linear_456_9688)"/>
</g>
<defs>
<linearGradient id="paint0_linear_456_9688" x1="13.666" y1="15.731" x2="66.9638" y2="27.7364" gradientUnits="userSpaceOnUse">
<stop stop-color="#FD4524"/>
<stop offset="1" stop-color="#F0684B"/>
</linearGradient>
<linearGradient id="paint1_linear_456_9688" x1="22.8555" y1="73.968" x2="52.9803" y2="87.8014" gradientUnits="userSpaceOnUse">
<stop stop-color="#FD4524"/>
<stop offset="1" stop-color="#F0684B"/>
</linearGradient>
<linearGradient id="paint2_linear_456_9688" x1="2.92383" y1="2.13379" x2="68.9713" y2="20.8273" gradientUnits="userSpaceOnUse">
<stop stop-color="#FD4524"/>
<stop offset="1" stop-color="#F0684B"/>
</linearGradient>
<clipPath id="clip0_456_9688">
<rect width="80" height="80" fill="white"/>
</clipPath>
</defs>
</svg>
