<svg width="55" height="70" viewBox="0 0 55 70" fill="none" xmlns="http://www.w3.org/2000/svg">
<g clip-path="url(#clip0_336_1783)">
<path fill-rule="evenodd" clip-rule="evenodd" d="M35.4025 22.5858C35.4025 22.1161 34.9946 21.7354 34.4914 21.7354C33.9881 21.7354 33.5802 22.1161 33.5802 22.5858V23.2325C31.7814 23.5492 30.2393 24.7849 30.2393 26.5174C30.2393 27.05 30.3995 27.7626 31.0851 28.3933C31.6285 28.8931 32.4363 29.2799 33.5802 29.5257V32.6721C32.6084 32.4019 32.0616 31.7187 32.0616 31.1269C32.0616 30.6572 31.6536 30.2765 31.1505 30.2765C30.6472 30.2765 30.2393 30.6572 30.2393 31.1269C30.2393 32.8594 31.7814 34.095 33.5802 34.4117V35.0585C33.5802 35.5282 33.9881 35.9089 34.4914 35.9089C34.9946 35.9089 35.4025 35.5282 35.4025 35.0585V34.4117C37.2013 34.095 38.7435 32.8594 38.7435 31.1269C38.7435 30.5942 38.5833 29.8816 37.8976 29.2509C37.3543 28.7511 36.5465 28.3644 35.4025 28.1185V24.9722C36.3744 25.2424 36.9211 25.9255 36.9211 26.5174C36.9211 26.9871 37.3291 27.3678 37.8323 27.3678C38.3355 27.3678 38.7435 26.9871 38.7435 26.5174C38.7435 24.7849 37.2013 23.5492 35.4025 23.2325V22.5858ZM33.5802 24.9722C32.6084 25.2424 32.0616 25.9255 32.0616 26.5174C32.0616 26.7181 32.1102 26.9483 32.3642 27.1819C32.5598 27.3617 32.9209 27.5838 33.5802 27.768V24.9722ZM35.4025 29.8763V32.6721C36.3744 32.4019 36.9211 31.7187 36.9211 31.1269C36.9211 30.9262 36.8725 30.696 36.6185 30.4624C36.423 30.2825 36.0618 30.0604 35.4025 29.8763Z" fill="url(#paint0_linear_336_1783)"/>
<path d="M34.4915 38.2691C39.7092 38.2691 43.939 34.0393 43.939 28.8215C43.939 23.6038 39.7092 19.374 34.4915 19.374C29.2737 19.374 25.0439 23.6038 25.0439 28.8215C25.0439 34.0393 29.2737 38.2691 34.4915 38.2691Z" stroke="#225675" stroke-width="3" stroke-linecap="round"/>
<path d="M8.03357 56.697C8.81635 56.697 9.45093 56.0624 9.45093 55.2797C9.45093 54.4969 8.81635 53.8623 8.03357 53.8623C7.25078 53.8623 6.61621 54.4969 6.61621 55.2797C6.61621 56.0624 7.25078 56.697 8.03357 56.697Z" fill="#225675"/>
<path d="M27.9215 51.9719H30.2389M10.8683 51.4994L11.3408 50.0821C13.1323 46.1787 17.0753 43.4678 21.6515 43.4678C23.9698 43.4678 26.1256 44.1635 27.9215 45.3576H38.1874C40.0138 45.3576 41.4945 46.8383 41.4945 48.6647C41.4945 50.4912 40.0138 51.9719 38.1874 51.9719H34.9218M42.0504 47.8652L48.0633 44.2564C49.6587 43.2989 51.728 43.8161 52.6855 45.4113C53.643 47.0067 53.1258 49.076 51.5306 50.0335L40.1606 56.8574C38.7432 57.7485 34.7746 59.5309 30.239 59.5309H21.7348C20.9473 59.5309 18.9 59.5312 17.4827 61.8933M9.21814 49.1372L17.8536 63.7903L10.527 68.108L1.8916 53.4549L9.21814 49.1372Z" stroke="#225675" stroke-width="3" stroke-linecap="round" stroke-linejoin="round"/>
<path d="M34.0186 12.2856V1.8916" stroke="#225675" stroke-width="3" stroke-linecap="round" stroke-linejoin="round"/>
<path d="M26.459 14.1759V7.56152" stroke="#225675" stroke-width="3" stroke-linecap="round" stroke-linejoin="round"/>
<path d="M41.5781 14.1759V7.56152" stroke="#225675" stroke-width="3" stroke-linecap="round" stroke-linejoin="round"/>
</g>
<defs>
<linearGradient id="paint0_linear_336_1783" x1="30.2393" y1="21.7354" x2="39.2726" y2="22.081" gradientUnits="userSpaceOnUse">
<stop stop-color="#FD4524"/>
<stop offset="1" stop-color="#F0684B"/>
</linearGradient>
<clipPath id="clip0_336_1783">
<rect width="54.8649" height="70" fill="white"/>
</clipPath>
</defs>
</svg>
