<svg width="70" height="66" viewBox="0 0 70 66" fill="none" xmlns="http://www.w3.org/2000/svg">
<g clip-path="url(#clip0_336_1794)">
<path d="M34.5456 31.8184H15.9093M49.0911 55.4547C49.0911 58.8635 49.0911 60.568 48.223 61.7628C47.9426 62.1487 47.6033 62.4881 47.2174 62.7684C46.0225 63.6365 44.3181 63.6365 40.9093 63.6365H33.6365M11.3638 31.8184H10.5456C6.6127 31.8184 4.64623 31.8184 3.35785 32.9542C3.21499 33.0802 3.08018 33.215 2.95421 33.3578C1.81836 34.6463 1.81836 36.6127 1.81836 40.5456V54.9093C1.81836 58.8422 1.81836 60.8086 2.95421 62.0971C3.08018 62.2399 3.21499 62.3747 3.35785 62.5007C4.64623 63.6365 6.6127 63.6365 10.5456 63.6365H28.182" stroke="#225675" stroke-width="3" stroke-linecap="round"/>
<path d="M15.4544 38.1816H9.99982C8.99567 38.1816 8.18164 38.9957 8.18164 39.9998V42.7271C8.18164 43.7312 8.99567 44.5453 9.99982 44.5453H15.4544C16.4585 44.5453 17.2725 43.7312 17.2725 42.7271V39.9998C17.2725 38.9957 16.4585 38.1816 15.4544 38.1816Z" fill="#225675"/>
<path d="M20.9089 47.2725H9.99982C8.99567 47.2725 8.18164 48.0865 8.18164 49.0906C8.18164 50.0948 8.99567 50.9088 9.99982 50.9088H20.9089C21.9131 50.9088 22.7271 50.0948 22.7271 49.0906C22.7271 48.0865 21.9131 47.2725 20.9089 47.2725Z" fill="#225675"/>
<path d="M11.3635 53.6367H9.54528C8.79216 53.6367 8.18164 54.2472 8.18164 55.0004C8.18164 55.7535 8.79216 56.364 9.54528 56.364H11.3635C12.1166 56.364 12.7271 55.7535 12.7271 55.0004C12.7271 54.2472 12.1166 53.6367 11.3635 53.6367Z" fill="#225675"/>
<path d="M17.7277 53.6367H15.9095C15.1564 53.6367 14.5459 54.2472 14.5459 55.0004C14.5459 55.7535 15.1564 56.364 15.9095 56.364H17.7277C18.4808 56.364 19.0914 55.7535 19.0914 55.0004C19.0914 54.2472 18.4808 53.6367 17.7277 53.6367Z" fill="#225675"/>
<path d="M24.091 53.6367H22.2728C21.5197 53.6367 20.9092 54.2472 20.9092 55.0004C20.9092 55.7535 21.5197 56.364 22.2728 56.364H24.091C24.8441 56.364 25.4546 55.7535 25.4546 55.0004C25.4546 54.2472 24.8441 53.6367 24.091 53.6367Z" fill="#225675"/>
<path d="M30.4543 53.6367H28.6361C27.883 53.6367 27.2725 54.2472 27.2725 55.0004C27.2725 55.7535 27.883 56.364 28.6361 56.364H30.4543C31.2074 56.364 31.8179 55.7535 31.8179 55.0004C31.8179 54.2472 31.2074 53.6367 30.4543 53.6367Z" fill="#225675"/>
<path fill-rule="evenodd" clip-rule="evenodd" d="M24.8298 10.5733H23.8184C23.216 10.5733 22.7275 11.0693 22.7275 11.6812C22.7275 12.2931 23.216 12.7892 23.8184 12.7892H24.2449C24.2364 12.9189 24.2322 13.0498 24.2322 13.1816C24.2322 13.3133 24.2364 13.4442 24.2449 13.5739H23.8184C23.216 13.5739 22.7275 14.07 22.7275 14.6819C22.7275 15.2938 23.216 15.7898 23.8184 15.7898H24.8298C25.7805 17.7454 27.7664 19.0906 30.0629 19.0906C31.1804 19.0906 32.2277 18.7709 33.1167 18.2161C33.63 17.8957 33.7904 17.2134 33.475 16.6921C33.1596 16.1707 32.4878 16.0078 31.9744 16.3281C31.4194 16.6746 30.766 16.8747 30.0629 16.8747C29.0537 16.8747 28.1401 16.46 27.4794 15.7898H28.6334C29.2359 15.7898 29.7243 15.2938 29.7243 14.6819C29.7243 14.07 29.2359 13.5739 28.6334 13.5739H26.4343C26.4209 13.4452 26.414 13.3143 26.414 13.1816C26.414 13.0488 26.4209 12.9179 26.4343 12.7892H28.6334C29.2359 12.7892 29.7243 12.2931 29.7243 11.6812C29.7243 11.0693 29.2359 10.5733 28.6334 10.5733H27.4794C28.1401 9.9031 29.0537 9.48837 30.0629 9.48837C30.766 9.48837 31.4194 9.68855 31.9744 10.035C32.4878 10.3553 33.1596 10.1924 33.475 9.67101C33.7904 9.14973 33.63 8.46736 33.1167 8.14701C32.2277 7.59217 31.1804 7.27246 30.0629 7.27246C27.7664 7.27246 25.7805 8.6177 24.8298 10.5733Z" fill="url(#paint0_linear_336_1794)"/>
<path fill-rule="evenodd" clip-rule="evenodd" d="M56.0715 27.3996C56.0715 26.8273 55.5917 26.3633 55 26.3633C54.4083 26.3633 53.9285 26.8273 53.9285 27.3996V28.1878C51.8135 28.5738 50 30.0796 50 32.1909C50 32.84 50.1884 33.7086 50.9945 34.4771C51.6335 35.0862 52.5834 35.5576 53.9285 35.8571V39.6914C52.7858 39.3622 52.1428 38.5296 52.1428 37.8084C52.1428 37.236 51.6632 36.772 51.0715 36.772C50.4797 36.772 50 37.236 50 37.8084C50 39.9196 51.8135 41.4255 53.9285 41.8115V42.5996C53.9285 43.172 54.4083 43.636 55 43.636C55.5917 43.636 56.0715 43.172 56.0715 42.5996V41.8115C58.1865 41.4255 60 39.9196 60 37.8084C60 37.1593 59.8116 36.2907 59.0055 35.5222C58.3665 34.9131 57.4166 34.4417 56.0715 34.1422V30.3079C57.2142 30.6371 57.8572 31.4697 57.8572 32.1909C57.8572 32.7633 58.3368 33.2273 58.9285 33.2273C59.5203 33.2273 60 32.7633 60 32.1909C60 30.0796 58.1865 28.5738 56.0715 28.1878V27.3996ZM53.9285 30.3079C52.7858 30.6371 52.1428 31.4697 52.1428 32.1909C52.1428 32.4356 52.2 32.7161 52.4987 33.0007C52.7285 33.2199 53.1533 33.4906 53.9285 33.715V30.3079ZM56.0715 36.2843V39.6914C57.2142 39.3622 57.8572 38.5296 57.8572 37.8084C57.8572 37.5637 57.8 37.2832 57.5013 36.9986C57.2714 36.7794 56.8467 36.5087 56.0715 36.2843Z" fill="url(#paint1_linear_336_1794)"/>
<path d="M54.9996 48.636C62.5308 48.636 68.636 42.5308 68.636 34.9996C68.636 27.4685 62.5308 21.3633 54.9996 21.3633C47.4685 21.3633 41.3633 27.4685 41.3633 34.9996C41.3633 42.5308 47.4685 48.636 54.9996 48.636Z" stroke="#225675" stroke-width="3" stroke-linecap="round"/>
<path d="M29.5457 24.9996C36.0727 24.9996 41.3639 19.7085 41.3639 13.1815C41.3639 6.65446 36.0727 1.36328 29.5457 1.36328C23.0187 1.36328 17.7275 6.65446 17.7275 13.1815C17.7275 19.7085 23.0187 24.9996 29.5457 24.9996Z" stroke="#225675" stroke-width="3" stroke-linecap="round"/>
</g>
<defs>
<linearGradient id="paint0_linear_336_1794" x1="22.7275" y1="7.27246" x2="34.2922" y2="7.9532" gradientUnits="userSpaceOnUse">
<stop stop-color="#FD4524"/>
<stop offset="1" stop-color="#F0684B"/>
</linearGradient>
<linearGradient id="paint1_linear_336_1794" x1="50" y1="26.3633" x2="60.6232" y2="26.7555" gradientUnits="userSpaceOnUse">
<stop stop-color="#FD4524"/>
<stop offset="1" stop-color="#F0684B"/>
</linearGradient>
<clipPath id="clip0_336_1794">
<rect width="70" height="65.4545" fill="white"/>
</clipPath>
</defs>
</svg>
