<svg width="65" height="70" viewBox="0 0 65 70" fill="none" xmlns="http://www.w3.org/2000/svg">
<path d="M47.4975 30.3953V12.5777C47.4976 12.3526 47.4535 12.1299 47.3674 11.9219C47.2813 11.714 47.155 11.5252 46.9958 11.3662L38.0229 2.39327C37.7025 2.07245 37.2677 1.892 36.8143 1.8916H3.60182C3.14824 1.8916 2.71324 2.07179 2.39252 2.39252C2.07179 2.71324 1.8916 3.14824 1.8916 3.60182V57.1888C1.8916 57.6423 2.07179 58.0773 2.39252 58.3981C2.71324 58.7187 3.14824 58.8989 3.60182 58.8989H21.8442M13.2931 24.6946H36.096M13.2931 36.096H21.8442M36.096 1.8916V11.5828C36.096 12.0364 36.2762 12.4714 36.5969 12.7921C36.9176 13.1129 37.3527 13.2931 37.8062 13.2931H47.4975" stroke="#225675" stroke-width="3" stroke-linecap="round" stroke-linejoin="round"/>
<path d="M13.293 13.293H24.6945" stroke="url(#paint0_linear_336_1821)" stroke-width="3" stroke-linecap="round" stroke-linejoin="round"/>
<path d="M56.0913 62.23L61.9693 68.108M35.6582 53.5529C35.6582 56.6708 36.8968 59.661 39.1014 61.8657C41.3062 64.0704 44.2963 65.3089 47.4142 65.3089C50.5322 65.3089 53.5223 64.0704 55.727 61.8657C57.9316 59.661 59.1703 56.6708 59.1703 53.5529C59.1703 50.4351 57.9316 47.4448 55.727 45.2402C53.5223 43.0355 50.5322 41.7969 47.4142 41.7969C44.2963 41.7969 41.3062 43.0355 39.1014 45.2402C36.8968 47.4448 35.6582 50.4351 35.6582 53.5529Z" stroke="url(#paint1_linear_336_1821)" stroke-width="3" stroke-linecap="round" stroke-linejoin="round"/>
<defs>
<linearGradient id="paint0_linear_336_1821" x1="13.293" y1="13.293" x2="21.2273" y2="19.0617" gradientUnits="userSpaceOnUse">
<stop stop-color="#FD4524"/>
<stop offset="1" stop-color="#F0684B"/>
</linearGradient>
<linearGradient id="paint1_linear_336_1821" x1="35.6582" y1="41.7969" x2="63.5338" y2="43.5745" gradientUnits="userSpaceOnUse">
<stop stop-color="#FD4524"/>
<stop offset="1" stop-color="#F0684B"/>
</linearGradient>
</defs>
</svg>
