<svg width="53" height="70" viewBox="0 0 53 70" fill="none" xmlns="http://www.w3.org/2000/svg">
<g clip-path="url(#clip0_256_6152)">
<path d="M45.6153 52.0779C45.8166 53.4941 45.3725 54.9844 44.2831 56.0737C43.1938 57.1631 41.7035 57.6072 40.2873 57.4059C40.4886 58.8221 40.0447 60.3122 38.9554 61.4016C37.866 62.4909 36.3757 62.935 34.9595 62.7338C35.1605 64.1497 34.7172 65.6396 33.6281 66.7289C31.7892 68.5678 28.8076 68.5678 26.9687 66.7289L25.6368 65.397M45.6153 52.0779C47.0313 52.279 48.5213 51.8355 49.6106 50.7464C51.4495 48.9074 51.4495 45.9259 49.6106 44.087L34.96 29.4363M45.6153 52.0779L42.9515 49.4142M25.8051 21.2767C19.7559 18.0712 12.0841 19.0153 6.99053 24.1088C1.65564 29.4436 0.872782 37.6069 4.64194 43.7718M14.3158 55.4078L15.6477 54.0759M14.3158 55.4078C12.8447 56.8789 10.4595 56.8789 8.98834 55.4078C7.51719 53.9366 7.51719 51.5514 8.98834 50.0803L10.3203 48.7484C11.7914 47.2773 14.1766 47.2773 15.6477 48.7484C17.1189 50.2196 17.1189 52.6048 15.6477 54.0759M14.3158 55.4078C12.8447 56.8789 12.8447 59.2643 14.3158 60.7354C15.787 62.2066 18.1722 62.2066 19.6433 60.7354M15.6477 54.0759C17.1189 52.6048 19.5041 52.6049 20.9752 54.0761C22.4463 55.5472 22.4463 57.9324 20.9752 59.4036M19.6433 60.7354L20.9752 59.4036M19.6433 60.7354C18.1722 62.2066 18.1722 64.5917 19.6434 66.0628C21.1145 67.534 23.4997 67.534 24.9709 66.0628L26.3028 64.7309C27.7739 63.2598 27.7739 60.8746 26.3028 59.4035C24.8316 57.9323 22.4463 57.9324 20.9752 59.4036M40.2875 29.4362H28.3006L22.3072 35.4296C21.7074 36.0294 20.9557 36.3846 20.1759 36.4954C19.0431 36.6562 17.851 36.301 16.9796 35.4296C16.1083 34.5582 15.753 33.3662 15.9139 32.2333C16.0246 31.4536 16.3799 30.7018 16.9796 30.1021L23.6391 23.4427C29.8914 17.1903 40.0285 17.1903 46.281 23.4427C51.6158 28.7776 52.3987 36.9407 48.6296 43.1057M2.99496 50.7463C1.52382 49.2751 1.52382 46.8899 2.99496 45.4188L4.32684 44.0869C5.79799 42.6158 8.1832 42.6158 9.65431 44.0869C11.1254 45.558 11.1254 47.9432 9.65431 49.4144L8.32247 50.7463C6.85132 52.2174 4.46611 52.2174 2.99496 50.7463Z" stroke="#225675" stroke-width="3" stroke-linecap="round" stroke-linejoin="round"/>
<path d="M17.9336 3.53125L20.0936 11.336" stroke="url(#paint0_linear_256_6152)" stroke-width="3" stroke-linecap="round"/>
<path d="M35.3281 3.54834L33.1533 11.3489" stroke="url(#paint1_linear_256_6152)" stroke-width="3" stroke-linecap="round"/>
<path d="M26.6323 1.89209L26.624 10.6163" stroke="url(#paint2_linear_256_6152)" stroke-width="3" stroke-linecap="round"/>
</g>
<defs>
<linearGradient id="paint0_linear_256_6152" x1="17.9336" y1="3.53125" x2="20.2306" y2="3.57179" gradientUnits="userSpaceOnUse">
<stop stop-color="#FD4524"/>
<stop offset="1" stop-color="#F0684B"/>
</linearGradient>
<linearGradient id="paint1_linear_256_6152" x1="33.1533" y1="3.54834" x2="35.4661" y2="3.58946" gradientUnits="userSpaceOnUse">
<stop stop-color="#FD4524"/>
<stop offset="1" stop-color="#F0684B"/>
</linearGradient>
<linearGradient id="paint2_linear_256_6152" x1="26.624" y1="1.89209" x2="26.6328" y2="1.89209" gradientUnits="userSpaceOnUse">
<stop stop-color="#FD4524"/>
<stop offset="1" stop-color="#F0684B"/>
</linearGradient>
<clipPath id="clip0_256_6152">
<rect width="52.973" height="70" fill="white"/>
</clipPath>
</defs>
</svg>
