<svg width="79" height="70" viewBox="0 0 79 70" fill="none" xmlns="http://www.w3.org/2000/svg">
<g clip-path="url(#clip0_336_1768)">
<path d="M25.9076 68.0557H16.3223L20.1564 63.263L16.3223 58.4704L20.1564 53.6777L16.3223 48.8851L20.1564 44.0925L16.3223 39.2998H45.0782L48.9123 42.1754L52.7464 39.2998H57.539M31.6588 68.0557H45.0782L48.9123 65.1801L52.7464 68.0557H69.0414L65.2073 63.263L69.0414 58.4704L65.2073 53.6777L69.0414 48.8851L65.2073 44.0925L69.0414 39.2998H63.2902" stroke="#225675" stroke-width="3" stroke-linecap="round" stroke-linejoin="round"/>
<path d="M48.9121 46.0098V47.9268" stroke="#225675" stroke-width="3" stroke-linecap="round" stroke-linejoin="round"/>
<path d="M48.9121 52.7188V54.6359" stroke="#225675" stroke-width="3" stroke-linecap="round" stroke-linejoin="round"/>
<path d="M48.9121 59.4287V61.3457" stroke="#225675" stroke-width="3" stroke-linecap="round" stroke-linejoin="round"/>
<path fill-rule="evenodd" clip-rule="evenodd" d="M28.1055 49.5626C28.4798 49.9371 29.0868 49.9371 29.4611 49.5626C29.8354 49.1883 29.8354 48.5815 29.4611 48.2071C29.0868 47.8328 28.4798 47.8328 28.1055 48.2071C27.7312 48.5815 27.7312 49.1883 28.1055 49.5626ZM26.0722 51.5961C27.5695 53.0934 29.9971 53.0934 31.4944 51.5961C32.9917 50.0987 32.9917 47.6711 31.4944 46.1738C29.9971 44.6765 27.5695 44.6765 26.0722 46.1738C24.5749 47.6711 24.5749 50.0987 26.0722 51.5961Z" fill="url(#paint0_linear_336_1768)"/>
<path fill-rule="evenodd" clip-rule="evenodd" d="M26.4602 61.3753C25.8987 60.8139 25.8987 59.9035 26.4602 59.342L39.2404 46.5618C39.802 46.0002 40.7124 46.0002 41.2738 46.5618C41.8353 47.1233 41.8353 48.0336 41.2738 48.5951L28.4936 61.3753C27.932 61.9369 27.0217 61.9369 26.4602 61.3753Z" fill="url(#paint1_linear_336_1768)"/>
<path fill-rule="evenodd" clip-rule="evenodd" d="M38.2725 59.7297C38.6468 60.104 39.2538 60.104 39.6281 59.7297C40.0024 59.3553 40.0024 58.7485 39.6281 58.3742C39.2538 57.9998 38.6468 57.9998 38.2725 58.3742C37.8982 58.7485 37.8982 59.3553 38.2725 59.7297ZM36.2392 61.763C37.7365 63.2604 40.1642 63.2604 41.6615 61.763C43.1587 60.2657 43.1587 57.8381 41.6615 56.3408C40.1642 54.8434 37.7365 54.8434 36.2392 56.3408C34.7419 57.8381 34.7419 60.2657 36.2392 61.763Z" fill="url(#paint2_linear_336_1768)"/>
<path d="M54.943 34.7474L59.7495 30.9308L54.1433 29.6479M11.2881 49.3403L1.94434 47.2022L6.75092 43.3856L4.0825 37.8584L8.88908 34.0418L6.22066 28.5146L11.0272 24.698L8.35882 19.1709L36.3901 25.5853L39.4862 29.2437L43.8652 27.2959L48.537 28.365" stroke="#225675" stroke-width="3" stroke-linecap="round" stroke-linejoin="round"/>
<path d="M38.6308 32.9814L38.2031 34.8503" stroke="#225675" stroke-width="3" stroke-linecap="round" stroke-linejoin="round"/>
<path fill-rule="evenodd" clip-rule="evenodd" d="M62.0339 18.0268C62.1446 18.0729 62.2547 18.1204 62.364 18.1693L62.3654 18.17C62.8383 18.3818 63.2973 18.6199 63.7406 18.8824C63.8231 18.9312 63.905 18.9809 63.9864 19.0314C65.8658 20.1981 67.4487 21.8098 68.5945 23.7234C68.6442 23.8062 68.6929 23.8896 68.741 23.9736C68.9987 24.4249 69.2325 24.8923 69.4406 25.3738L69.4412 25.3753C69.4893 25.4866 69.5359 25.5986 69.5812 25.7113C69.7026 26.0145 70.13 26.0145 70.2513 25.7113C70.2965 25.5986 70.3433 25.4866 70.3913 25.3753L70.3919 25.3738C70.5999 24.8923 70.8338 24.4249 71.0915 23.9736C71.1395 23.8896 71.1883 23.8062 71.2379 23.7234C72.3839 21.8097 73.9669 20.198 75.8464 19.0312C75.9277 18.9808 76.0095 18.9311 76.0919 18.8824C76.5351 18.62 76.994 18.382 77.4667 18.1701L77.4685 18.1693C77.5778 18.1204 77.6878 18.0729 77.7986 18.0268C78.0964 17.9032 78.0964 17.4681 77.7986 17.3445C77.6878 17.2984 77.5778 17.2508 77.4685 17.2019L77.467 17.2012C76.9942 16.9894 76.5354 16.7512 76.0922 16.4886C76.0098 16.4398 75.928 16.3902 75.8467 16.3396C73.9679 15.1729 72.3844 13.5613 71.238 11.6478C71.1884 11.5649 71.1396 11.4815 71.0917 11.3976C70.8339 10.9463 70.5999 10.4791 70.3919 9.99753L70.3913 9.99607C70.3433 9.88485 70.2965 9.77275 70.2513 9.66003C70.13 9.35681 69.7026 9.35681 69.5812 9.66003C69.5359 9.77275 69.4893 9.88485 69.4412 9.99607L69.4406 9.99753C69.2325 10.4791 68.9987 10.9464 68.741 11.3977C68.693 11.4817 68.6442 11.565 68.5946 11.6479C67.4487 13.5615 65.8658 15.1732 63.9864 16.34C63.905 16.3905 63.8231 16.4402 63.7406 16.489C63.2973 16.7515 62.8383 16.9896 62.3654 17.2013L62.364 17.202C62.2547 17.2509 62.1446 17.2984 62.0339 17.3445C61.7361 17.4681 61.7361 17.9032 62.0339 18.0268ZM69.9165 13.8844C68.8856 15.3507 67.6233 16.6361 66.1831 17.6857C67.6231 18.7353 68.8854 20.0205 69.9163 21.4867C70.9472 20.0203 72.2098 18.7349 73.6499 17.6852C72.2103 16.6358 70.9477 15.3506 69.9165 13.8844Z" fill="#225675"/>
<path d="M53.8327 4.91097C55.7866 5.72438 57.3466 7.3127 58.1455 9.30212C58.2148 9.47539 58.459 9.47539 58.5283 9.30212C59.3272 7.3127 60.8872 5.72438 62.8411 4.91097C63.0112 4.84037 63.0112 4.5917 62.8411 4.52111C60.8888 3.70769 59.3272 2.11937 58.5283 0.129954C58.459 -0.043318 58.2148 -0.043318 58.1455 0.129954C57.3466 2.11937 55.7866 3.70769 53.8327 4.52111C53.6625 4.5917 53.6625 4.84037 53.8327 4.91097Z" fill="#225675"/>
</g>
<defs>
<linearGradient id="paint0_linear_336_1768" x1="24.9492" y1="45.0508" x2="33.0733" y2="45.5688" gradientUnits="userSpaceOnUse">
<stop stop-color="#FD4524"/>
<stop offset="1" stop-color="#F0684B"/>
</linearGradient>
<linearGradient id="paint1_linear_336_1768" x1="26.0391" y1="46.1406" x2="42.6258" y2="47.1983" gradientUnits="userSpaceOnUse">
<stop stop-color="#FD4524"/>
<stop offset="1" stop-color="#F0684B"/>
</linearGradient>
<linearGradient id="paint2_linear_336_1768" x1="35.1162" y1="55.2178" x2="43.2404" y2="55.7358" gradientUnits="userSpaceOnUse">
<stop stop-color="#FD4524"/>
<stop offset="1" stop-color="#F0684B"/>
</linearGradient>
<clipPath id="clip0_336_1768">
<rect width="78.75" height="70" fill="white"/>
</clipPath>
</defs>
</svg>
