<svg width="171" height="150" viewBox="0 0 171 150" fill="none" xmlns="http://www.w3.org/2000/svg">
<g opacity="0.25">
<path d="M160.017 112.914C176.509 89.7747 173.988 58.073 151.462 37.4227C141.17 27.9877 128.049 22.114 113.875 20.4737C113.787 20.3634 113.695 20.2569 113.598 20.1543C101.267 7.346 83.5527 0 64.996 0C29.683 0 0 26.311 0 60C0 71.8117 3.669 83.1347 10.6387 92.9137L0.902333 123.482C0.602978 124.422 0.588135 125.429 0.85967 126.377C1.1312 127.325 1.67699 128.171 2.42838 128.81C3.17977 129.448 4.10321 129.851 5.08255 129.966C6.06188 130.081 7.05338 129.904 7.93233 129.457L37.5413 114.401C43.622 117.019 50.07 118.737 56.7473 119.519C69.628 133.064 87.4383 140 105.66 140C115.132 140 124.57 138.07 133.113 134.401L162.724 149.457C163.425 149.814 164.201 150 164.989 150C168.363 150 170.782 146.712 169.754 143.482L160.017 112.914ZM39.5593 104.34C38.8685 104.012 38.1116 103.847 37.3469 103.857C36.5822 103.868 35.83 104.053 35.1483 104.4L14.0593 115.123L20.946 93.5013C21.193 92.726 21.247 91.9021 21.1034 91.1012C20.9597 90.3003 20.6227 89.5465 20.1217 88.9053C13.4997 80.4287 9.99933 70.4337 9.99933 60C9.99933 32.43 34.6707 10 64.996 10C77.208 10 88.9643 13.6997 98.5007 20.362C66.3847 23.5913 40.664 48.676 40.664 80C40.664 89.7427 43.1613 99.122 47.8697 107.525C45.0219 106.679 42.2435 105.614 39.5593 104.34ZM135.508 124.4C134.826 124.053 134.074 123.867 133.309 123.857C132.544 123.847 131.787 124.012 131.097 124.34C123.302 128.043 114.506 130 105.66 130C75.3347 130 50.6633 107.57 50.6633 80C50.6633 52.43 75.3347 30 105.66 30C135.985 30 160.657 52.43 160.657 80C160.657 90.4337 157.156 100.429 150.534 108.905C150.033 109.546 149.696 110.3 149.553 111.101C149.409 111.902 149.463 112.726 149.71 113.501L156.596 135.123L135.508 124.4Z" fill="#3D8C95"/>
<path d="M85.3281 85C88.0895 85 90.3281 82.7614 90.3281 80C90.3281 77.2386 88.0895 75 85.3281 75C82.5667 75 80.3281 77.2386 80.3281 80C80.3281 82.7614 82.5667 85 85.3281 85Z" fill="#3D8C95"/>
<path d="M105.327 85C108.089 85 110.327 82.7614 110.327 80C110.327 77.2386 108.089 75 105.327 75C102.566 75 100.327 77.2386 100.327 80C100.327 82.7614 102.566 85 105.327 85Z" fill="#3D8C95"/>
<path d="M125.326 85C128.088 85 130.326 82.7614 130.326 80C130.326 77.2386 128.088 75 125.326 75C122.565 75 120.326 77.2386 120.326 80C120.326 82.7614 122.565 85 125.326 85Z" fill="#3D8C95"/>
</g>
</svg>
