<svg width="717" height="4700" viewBox="0 0 717 4700" fill="none" xmlns="http://www.w3.org/2000/svg">
<path d="M1 1563V1314C1 1286.39 23.3829 1264 50.9971 1264C153.071 1264 258.077 1264 359 1264" stroke="#225675" stroke-opacity="0.5" stroke-dasharray="8 8"/>
<path d="M716 763V1214C716 1241.61 693.627 1264 666.013 1264C566.668 1264 451.885 1264 359 1264" stroke="#225675" stroke-opacity="0.5" stroke-dasharray="8 8"/>
<path d="M1 3120V2824C1 2796.39 23.3829 2774 50.9971 2774C153.071 2774 258.077 2774 359 2774" stroke="#225675" stroke-opacity="0.5" stroke-dasharray="8 8"/>
<path d="M716 2279V2724C716 2751.61 693.627 2774 666.013 2774C566.668 2774 451.885 2774 359 2774" stroke="#225675" stroke-opacity="0.5" stroke-dasharray="8 8"/>
<path d="M1 0V418C1 445.614 23.3845 468 50.9987 468C144.517 468 240.603 468 333 468" stroke="#225675" stroke-opacity="0.5" stroke-dasharray="8 8"/>
<path d="M716 763L716 518C716 490.386 693.473 468 665.859 468C503.836 468 534.163 468 333 468" stroke="#225675" stroke-opacity="0.5" stroke-dasharray="8 8"/>
<path d="M1 1563V1934C1 1961.61 23.3845 1984 50.9987 1984C144.517 1984 240.603 1984 333 1984" stroke="#225675" stroke-opacity="0.5" stroke-dasharray="8 8"/>
<path d="M715.89 2279L715.89 2034C715.89 2006.39 693.363 1984 665.749 1984C503.789 1984 534.099 1984 333 1984" stroke="#225675" stroke-opacity="0.5" stroke-dasharray="8 8"/>
<path d="M1 3120V3606C1 3633.61 23.3845 3656 50.9987 3656C144.517 3656 240.603 3656 333 3656" stroke="#225675" stroke-opacity="0.5" stroke-dasharray="8 8"/>
<path d="M716 3953L716 3706C716 3678.39 693.473 3656 665.859 3656C503.836 3656 534.163 3656 333 3656" stroke="#225675" stroke-opacity="0.5" stroke-dasharray="8 8"/>
<path d="M1 4700V4440C1 4412.39 23.3829 4390 50.9971 4390C153.071 4390 258.077 4390 359 4390" stroke="#225675" stroke-opacity="0.5" stroke-dasharray="8 8"/>
<path d="M716 3953V4340C716 4367.61 693.627 4390 666.013 4390C566.668 4390 451.885 4390 359 4390" stroke="#225675" stroke-opacity="0.5" stroke-dasharray="8 8"/>
</svg>
