<svg width="28" height="24" viewBox="0 0 28 24" fill="none" xmlns="http://www.w3.org/2000/svg">
<path opacity="0.5" d="M19.4844 1C18.4561 1.0012 17.439 1.21305 16.4957 1.62249C15.5525 2.03193 14.7031 2.63028 14 3.38062C12.9696 2.28095 11.6325 1.51642 10.1621 1.18627C8.69178 0.856132 7.15613 0.975631 5.75455 1.52926C4.35296 2.08288 3.15018 3.04506 2.30233 4.29089C1.45449 5.53672 1.00074 7.00866 1 8.51562C1 15.9988 13.0697 23.3437 13.5938 23.6322C13.7201 23.7081 13.8648 23.7482 14.0122 23.7482C14.1596 23.7482 14.3043 23.7081 14.4306 23.6322C14.9303 23.3437 27 15.9988 27 8.51562C26.9978 6.52302 26.2053 4.61264 24.7963 3.20365C23.3874 1.79466 21.477 1.00215 19.4844 1ZM14 21.9787C11.8997 20.6381 2.625 14.3738 2.625 8.51562C2.62604 7.26435 3.0255 6.04592 3.76549 5.0369C4.50547 4.02789 5.54753 3.28072 6.74065 2.90369C7.93377 2.52665 9.21595 2.53934 10.4014 2.9399C11.5868 3.34047 12.6139 4.10811 13.3338 5.13156C13.4087 5.23802 13.5082 5.32489 13.6238 5.38486C13.7394 5.44482 13.8677 5.47612 13.998 5.47612C14.1282 5.47612 14.2565 5.44482 14.3721 5.38486C14.4877 5.32489 14.5872 5.23802 14.6622 5.13156C15.3815 4.10635 16.4088 3.33705 17.595 2.93536C18.7812 2.53366 20.0645 2.52048 21.2587 2.89771C22.4529 3.27495 23.4958 4.02298 24.236 5.0332C24.9762 6.04342 25.3752 7.26325 25.375 8.51562C25.375 14.3697 16.1003 20.6341 14 21.9787Z" fill="#0B0B0B" stroke="#0B0B0B" stroke-width="0.5"/>
</svg>
