<svg width="26" height="26" viewBox="0 0 26 26" fill="none" xmlns="http://www.w3.org/2000/svg">
<path opacity="0.5" d="M10.4717 0.000193349C4.70107 0.000193349 0 4.70129 0 10.4719C0 16.2426 4.70133 20.9437 10.4717 20.9437C12.9674 20.9437 15.2599 20.0615 17.062 18.5965L24.1483 25.6828C24.5712 26.1057 25.2598 26.1057 25.6828 25.6828C26.1057 25.2599 26.1057 24.5826 25.6828 24.1593L18.5966 17.0731C20.0644 15.2703 20.9437 12.9702 20.9437 10.4717C20.9437 4.70109 16.2424 0 10.472 0L10.4717 0.000193349ZM10.4717 2.16676C15.0713 2.16676 18.7767 5.8724 18.7767 10.4718C18.7767 15.0712 15.0711 18.7768 10.4717 18.7768C5.87231 18.7768 2.16669 15.0712 2.16669 10.4718C2.16669 5.8724 5.87231 2.16676 10.4717 2.16676V2.16676Z" fill="#0B0B0B"/>
</svg>
